<svg width="121" height="90" viewBox="0 0 121 90" fill="none" xmlns="http://www.w3.org/2000/svg">
<g clip-path="url(#clip0)">
<path d="M66.5215 54.125C66.5215 59.0495 65.9766 63.7116 64.8867 68.1113C63.7969 72.4707 62.1217 76.2852 59.8613 79.5547C57.6009 82.8242 54.735 85.4277 51.2637 87.3652C47.7923 89.2624 43.6549 90.2109 38.8516 90.2109C34.0885 90.2109 29.9512 89.2624 26.4395 87.3652C22.9681 85.4277 20.082 82.8242 17.7812 79.5547C15.5208 76.2852 13.8255 72.4707 12.6953 68.1113C11.6055 63.7116 11.0404 59.0495 11 54.125V35.7793C11.0404 30.8548 11.6055 26.2129 12.6953 21.8535C13.7852 17.4538 15.4603 13.599 17.7207 10.2891C20.0215 6.97917 22.9076 4.37565 26.3789 2.47852C29.8503 0.541016 33.9674 -0.427734 38.7305 -0.427734C43.5339 -0.427734 47.6712 0.541016 51.1426 2.47852C54.6543 4.37565 57.5404 6.97917 59.8008 10.2891C62.0612 13.5586 63.7363 17.3932 64.8262 21.793C65.9564 26.1927 66.5215 30.8548 66.5215 35.7793V54.125ZM18.2656 55.2148C18.2656 56.8698 18.3262 58.444 18.4473 59.9375L58.2266 23.9121C57.6615 21.3288 56.8743 18.9271 55.8652 16.707C54.8561 14.487 53.5443 12.5697 51.9297 10.9551C50.3555 9.34049 48.4785 8.06901 46.2988 7.14062C44.1191 6.21224 41.5964 5.74805 38.7305 5.74805C34.9766 5.74805 31.7878 6.53516 29.1641 8.10938C26.5807 9.68359 24.4818 11.8027 22.8672 14.4668C21.2526 17.1309 20.082 20.1986 19.3555 23.6699C18.6289 27.1413 18.2656 30.7741 18.2656 34.5684V55.2148ZM59.2559 34.5684C59.2559 33.2363 59.1953 31.9245 59.0742 30.6328L19.4766 66.5977C20.082 69.1003 20.9095 71.4212 21.959 73.5605C23.0085 75.6999 24.3203 77.5566 25.8945 79.1309C27.4688 80.6647 29.3255 81.8757 31.4648 82.7637C33.6042 83.6517 36.0664 84.0957 38.8516 84.0957C42.6055 84.0957 45.7741 83.3086 48.3574 81.7344C50.9811 80.1198 53.0801 77.9805 54.6543 75.3164C56.2689 72.6523 57.4395 69.5846 58.166 66.1133C58.8926 62.6419 59.2559 59.0091 59.2559 55.2148V34.5684Z" fill="url(#paint0_linear)" style="mix-blend-mode:overlay"/>
<path d="M109.672 89H102.406V9.98633L78.006 20.4609V13.6191L108.643 0.84375H109.672V89Z" fill="url(#paint1_linear)" style="mix-blend-mode:overlay"/>
</g>
<defs>
<linearGradient id="paint0_linear" x1="80.5602" y1="122.619" x2="150.297" y2="-18.7002" gradientUnits="userSpaceOnUse">
<stop stop-color="#D70030"/>
<stop offset="1" stop-color="#420FCE"/>
</linearGradient>
<linearGradient id="paint1_linear" x1="80.5602" y1="122.619" x2="150.297" y2="-18.7002" gradientUnits="userSpaceOnUse">
<stop stop-color="#D70030"/>
<stop offset="1" stop-color="#420FCE"/>
</linearGradient>
<clipPath id="clip0">
<rect width="121" height="90" fill="white"/>
</clipPath>
</defs>
</svg>
