<svg width="121" height="90" viewBox="0 0 121 90" fill="none" xmlns="http://www.w3.org/2000/svg">
<g clip-path="url(#clip0)">
<path d="M57.5215 54.125C57.5215 59.0495 56.9766 63.7116 55.8867 68.1113C54.7969 72.4707 53.1217 76.2852 50.8613 79.5547C48.6009 82.8242 45.735 85.4277 42.2637 87.3652C38.7923 89.2624 34.6549 90.2109 29.8516 90.2109C25.0885 90.2109 20.9512 89.2624 17.4395 87.3652C13.9681 85.4277 11.082 82.8242 8.78125 79.5547C6.52083 76.2852 4.82552 72.4707 3.69531 68.1113C2.60547 63.7116 2.04036 59.0495 2 54.125V35.7793C2.04036 30.8548 2.60547 26.2129 3.69531 21.8535C4.78516 17.4538 6.46029 13.599 8.7207 10.2891C11.0215 6.97917 13.9076 4.37565 17.3789 2.47852C20.8503 0.541016 24.9674 -0.427734 29.7305 -0.427734C34.5339 -0.427734 38.6712 0.541016 42.1426 2.47852C45.6543 4.37565 48.5404 6.97917 50.8008 10.2891C53.0612 13.5586 54.7363 17.3932 55.8262 21.793C56.9564 26.1927 57.5215 30.8548 57.5215 35.7793V54.125ZM9.26562 55.2148C9.26562 56.8698 9.32617 58.444 9.44727 59.9375L49.2266 23.9121C48.6615 21.3288 47.8743 18.9271 46.8652 16.707C45.8561 14.487 44.5443 12.5697 42.9297 10.9551C41.3555 9.3405 39.4785 8.06901 37.2988 7.14062C35.1191 6.21224 32.5964 5.74805 29.7305 5.74805C25.9766 5.74805 22.7878 6.53516 20.1641 8.10938C17.5807 9.68359 15.4818 11.8027 13.8672 14.4668C12.2526 17.1309 11.082 20.1986 10.3555 23.6699C9.62891 27.1413 9.26562 30.7741 9.26562 34.5684V55.2148ZM50.2559 34.5684C50.2559 33.2363 50.1953 31.9245 50.0742 30.6328L10.4766 66.5977C11.082 69.1003 11.9095 71.4212 12.959 73.5605C14.0085 75.6999 15.3203 77.5566 16.8945 79.1309C18.4688 80.6647 20.3255 81.8756 22.4648 82.7637C24.6042 83.6517 27.0664 84.0957 29.8516 84.0957C33.6055 84.0957 36.7741 83.3086 39.3574 81.7344C41.9811 80.1198 44.0801 77.9805 45.6543 75.3164C47.2689 72.6523 48.4395 69.5846 49.166 66.1133C49.8926 62.6419 50.2559 59.0091 50.2559 55.2148V34.5684Z" fill="url(#paint0_linear)" style="mix-blend-mode:overlay"/>
<path d="M118.897 89H63.6173V83.4297L92.4982 50.6738C94.6375 48.252 96.5952 45.931 98.3712 43.7109C100.188 41.4909 101.742 39.3112 103.033 37.1719C104.365 34.9922 105.395 32.8125 106.121 30.6328C106.848 28.4531 107.211 26.2129 107.211 23.9121C107.211 21.248 106.767 18.806 105.879 16.5859C104.991 14.3659 103.72 12.4688 102.065 10.8945C100.45 9.27995 98.5125 8.02865 96.2521 7.14062C93.9917 6.2526 91.4689 5.80859 88.6837 5.80859C85.5757 5.80859 82.8107 6.33333 80.3888 7.38281C77.9669 8.43229 75.9084 9.86523 74.213 11.6816C72.5581 13.498 71.2664 15.6576 70.338 18.1602C69.45 20.6224 68.9858 23.3268 68.9455 26.2734H61.6798C61.7202 22.6406 62.3862 19.2096 63.6779 15.9805C64.9696 12.7513 66.786 9.92578 69.1271 7.50391C71.4683 5.08203 74.2736 3.16471 77.5431 1.75195C80.853 0.339193 84.5666 -0.367188 88.6837 -0.367188C92.5587 -0.367188 96.0705 0.218099 99.2189 1.38867C102.408 2.51888 105.132 4.15365 107.393 6.29297C109.653 8.39193 111.389 10.9349 112.6 13.9219C113.851 16.8685 114.477 20.138 114.477 23.7305C114.477 26.6367 113.952 29.4622 112.902 32.207C111.893 34.9518 110.561 37.6361 108.906 40.2598C107.292 42.8835 105.435 45.4264 103.336 47.8887C101.277 50.3509 99.2189 52.7526 97.1603 55.0938L72.5177 82.8848H118.897V89Z" fill="url(#paint1_linear)" style="mix-blend-mode:overlay"/>
</g>
<defs>
<linearGradient id="paint0_linear" x1="71.5602" y1="122.619" x2="141.297" y2="-18.7002" gradientUnits="userSpaceOnUse">
<stop stop-color="#D70030"/>
<stop offset="1" stop-color="#420FCE"/>
</linearGradient>
<linearGradient id="paint1_linear" x1="71.5602" y1="122.619" x2="141.297" y2="-18.7002" gradientUnits="userSpaceOnUse">
<stop stop-color="#D70030"/>
<stop offset="1" stop-color="#420FCE"/>
</linearGradient>
<clipPath id="clip0">
<rect width="121" height="90" fill="white"/>
</clipPath>
</defs>
</svg>
