<svg width="121" height="90" viewBox="0 0 121 90" fill="none" xmlns="http://www.w3.org/2000/svg">
<g clip-path="url(#clip0)">
<path d="M58.5215 54.125C58.5215 59.0495 57.9766 63.7116 56.8867 68.1113C55.7969 72.4707 54.1217 76.2852 51.8613 79.5547C49.6009 82.8242 46.735 85.4277 43.2637 87.3652C39.7923 89.2624 35.6549 90.2109 30.8516 90.2109C26.0885 90.2109 21.9512 89.2624 18.4395 87.3652C14.9681 85.4277 12.082 82.8242 9.78125 79.5547C7.52083 76.2852 5.82552 72.4707 4.69531 68.1113C3.60547 63.7116 3.04036 59.0495 3 54.125V35.7793C3.04036 30.8548 3.60547 26.2129 4.69531 21.8535C5.78516 17.4538 7.46029 13.599 9.7207 10.2891C12.0215 6.97917 14.9076 4.37565 18.3789 2.47852C21.8503 0.541016 25.9674 -0.427734 30.7305 -0.427734C35.5339 -0.427734 39.6712 0.541016 43.1426 2.47852C46.6543 4.37565 49.5404 6.97917 51.8008 10.2891C54.0612 13.5586 55.7363 17.3932 56.8262 21.793C57.9564 26.1927 58.5215 30.8548 58.5215 35.7793V54.125ZM10.2656 55.2148C10.2656 56.8698 10.3262 58.444 10.4473 59.9375L50.2266 23.9121C49.6615 21.3288 48.8743 18.9271 47.8652 16.707C46.8561 14.487 45.5443 12.5697 43.9297 10.9551C42.3555 9.3405 40.4785 8.06901 38.2988 7.14062C36.1191 6.21224 33.5964 5.74805 30.7305 5.74805C26.9766 5.74805 23.7878 6.53516 21.1641 8.10938C18.5807 9.68359 16.4818 11.8027 14.8672 14.4668C13.2526 17.1309 12.082 20.1986 11.3555 23.6699C10.6289 27.1413 10.2656 30.7741 10.2656 34.5684V55.2148ZM51.2559 34.5684C51.2559 33.2363 51.1953 31.9245 51.0742 30.6328L11.4766 66.5977C12.082 69.1003 12.9095 71.4212 13.959 73.5605C15.0085 75.6999 16.3203 77.5566 17.8945 79.1309C19.4688 80.6647 21.3255 81.8756 23.4648 82.7637C25.6042 83.6517 28.0664 84.0957 30.8516 84.0957C34.6055 84.0957 37.7741 83.3086 40.3574 81.7344C42.9811 80.1198 45.0801 77.9805 46.6543 75.3164C48.2689 72.6523 49.4395 69.5846 50.166 66.1133C50.8926 62.6419 51.2559 59.0091 51.2559 55.2148V34.5684Z" fill="url(#paint0_linear)" style="mix-blend-mode:overlay"/>
<path d="M81.0861 40.9863H88.4123C91.2378 40.946 93.9018 40.5423 96.4044 39.7754C98.9071 39.0085 101.087 37.8984 102.944 36.4453C104.841 34.9922 106.334 33.2161 107.424 31.1172C108.514 29.0182 109.059 26.5964 109.059 23.8516C109.059 20.9857 108.615 18.4427 107.727 16.2227C106.839 13.9622 105.587 12.0651 103.973 10.5312C102.358 8.9974 100.401 7.82682 98.0998 7.01953C95.8393 6.21224 93.3166 5.80859 90.5314 5.80859C87.7462 5.80859 85.1831 6.2526 82.8419 7.14062C80.5008 7.98828 78.4624 9.19922 76.7267 10.7734C75.0314 12.3477 73.6792 14.265 72.6701 16.5254C71.7013 18.7454 71.1968 21.2279 71.1564 23.9727H63.8908C63.9715 20.5013 64.6779 17.2923 66.0099 14.3457C67.3823 11.3587 69.2391 8.77539 71.5802 6.5957C73.9214 4.41602 76.7065 2.7207 79.9357 1.50977C83.1649 0.258464 86.6968 -0.367188 90.5314 -0.367188C94.2853 -0.367188 97.7365 0.197917 100.885 1.32812C104.033 2.41797 106.738 4.01237 108.998 6.11133C111.299 8.16992 113.075 10.7129 114.326 13.7402C115.618 16.7676 116.264 20.2188 116.264 24.0938C116.264 26.2734 115.901 28.3724 115.174 30.3906C114.488 32.3685 113.479 34.2253 112.147 35.9609C110.815 37.6562 109.2 39.1901 107.303 40.5625C105.406 41.8945 103.287 42.9844 100.945 43.832C106.435 45.3659 110.633 48.0098 113.539 51.7637C116.445 55.4772 117.899 59.9173 117.899 65.084C117.899 69.0397 117.192 72.5716 115.779 75.6797C114.407 78.7878 112.49 81.4115 110.027 83.5508C107.606 85.6901 104.74 87.3451 101.43 88.5156C98.1603 89.6458 94.6284 90.2109 90.8341 90.2109C86.9591 90.2109 83.3263 89.6458 79.9357 88.5156C76.5451 87.3451 73.5783 85.6901 71.0353 83.5508C68.4923 81.3711 66.4741 78.7272 64.9806 75.6191C63.4871 72.5111 62.7 68.9994 62.6193 65.084H69.8244C69.9051 67.9902 70.4904 70.6139 71.5802 72.9551C72.6701 75.2962 74.1434 77.2943 76.0002 78.9492C77.8973 80.6042 80.0972 81.8756 82.5998 82.7637C85.1427 83.6517 87.8875 84.0957 90.8341 84.0957C93.7 84.0957 96.3439 83.6921 98.7658 82.8848C101.228 82.0775 103.327 80.8867 105.063 79.3125C106.839 77.7383 108.211 75.7806 109.18 73.4395C110.189 71.0983 110.694 68.3939 110.694 65.3262C110.694 62.097 110.088 59.3522 108.877 57.0918C107.707 54.791 106.112 52.9141 104.094 51.4609C102.076 50.0078 99.7143 48.9382 97.0099 48.252C94.3055 47.5658 91.4396 47.2025 88.4123 47.1621H81.0861V40.9863Z" fill="url(#paint1_linear)" style="mix-blend-mode:overlay"/>
</g>
<defs>
<linearGradient id="paint0_linear" x1="72.5602" y1="122.619" x2="142.297" y2="-18.7002" gradientUnits="userSpaceOnUse">
<stop stop-color="#D70030"/>
<stop offset="1" stop-color="#420FCE"/>
</linearGradient>
<linearGradient id="paint1_linear" x1="72.5602" y1="122.619" x2="142.297" y2="-18.7002" gradientUnits="userSpaceOnUse">
<stop stop-color="#D70030"/>
<stop offset="1" stop-color="#420FCE"/>
</linearGradient>
<clipPath id="clip0">
<rect width="121" height="90" fill="white"/>
</clipPath>
</defs>
</svg>
