<svg width="121" height="90" viewBox="0 0 121 90" fill="none" xmlns="http://www.w3.org/2000/svg">
<g clip-path="url(#clip0)">
<path d="M55.5215 54.125C55.5215 59.0495 54.9766 63.7116 53.8867 68.1113C52.7969 72.4707 51.1217 76.2852 48.8613 79.5547C46.6009 82.8242 43.735 85.4277 40.2637 87.3652C36.7923 89.2624 32.6549 90.2109 27.8516 90.2109C23.0885 90.2109 18.9512 89.2624 15.4395 87.3652C11.9681 85.4277 9.08203 82.8242 6.78125 79.5547C4.52083 76.2852 2.82552 72.4707 1.69531 68.1113C0.605469 63.7116 0.0403646 59.0495 0 54.125V35.7793C0.0403646 30.8548 0.605469 26.2129 1.69531 21.8535C2.78516 17.4538 4.46029 13.599 6.7207 10.2891C9.02148 6.97917 11.9076 4.37565 15.3789 2.47852C18.8503 0.541016 22.9674 -0.427734 27.7305 -0.427734C32.5339 -0.427734 36.6712 0.541016 40.1426 2.47852C43.6543 4.37565 46.5404 6.97917 48.8008 10.2891C51.0612 13.5586 52.7363 17.3932 53.8262 21.793C54.9564 26.1927 55.5215 30.8548 55.5215 35.7793V54.125ZM7.26562 55.2148C7.26562 56.8698 7.32617 58.444 7.44727 59.9375L47.2266 23.9121C46.6615 21.3288 45.8743 18.9271 44.8652 16.707C43.8561 14.487 42.5443 12.5697 40.9297 10.9551C39.3555 9.3405 37.4785 8.06901 35.2988 7.14062C33.1191 6.21224 30.5964 5.74805 27.7305 5.74805C23.9766 5.74805 20.7878 6.53516 18.1641 8.10938C15.5807 9.68359 13.4818 11.8027 11.8672 14.4668C10.2526 17.1309 9.08203 20.1986 8.35547 23.6699C7.62891 27.1413 7.26562 30.7741 7.26562 34.5684V55.2148ZM48.2559 34.5684C48.2559 33.2363 48.1953 31.9245 48.0742 30.6328L8.47656 66.5977C9.08203 69.1003 9.9095 71.4212 10.959 73.5605C12.0085 75.6999 13.3203 77.5566 14.8945 79.1309C16.4688 80.6647 18.3255 81.8756 20.4648 82.7637C22.6042 83.6517 25.0664 84.0957 27.8516 84.0957C31.6055 84.0957 34.7741 83.3086 37.3574 81.7344C39.9811 80.1198 42.0801 77.9805 43.6543 75.3164C45.2689 72.6523 46.4395 69.5846 47.166 66.1133C47.8926 62.6419 48.2559 59.0091 48.2559 55.2148V34.5684Z" fill="url(#paint0_linear)" style="mix-blend-mode:overlay"/>
<path d="M107.512 60.6035H121.317V66.7188H107.512V89H100.307V66.7188H58.8322V62.6016L99.5802 0.84375H107.512V60.6035ZM67.5509 60.6035H100.307V9.98633L96.8556 16.1016L67.5509 60.6035Z" fill="url(#paint1_linear)" style="mix-blend-mode:overlay"/>
</g>
<defs>
<linearGradient id="paint0_linear" x1="69.5602" y1="122.619" x2="139.297" y2="-18.7002" gradientUnits="userSpaceOnUse">
<stop stop-color="#D70030"/>
<stop offset="1" stop-color="#420FCE"/>
</linearGradient>
<linearGradient id="paint1_linear" x1="69.5602" y1="122.619" x2="139.297" y2="-18.7002" gradientUnits="userSpaceOnUse">
<stop stop-color="#D70030"/>
<stop offset="1" stop-color="#420FCE"/>
</linearGradient>
<clipPath id="clip0">
<rect width="121" height="90" fill="white"/>
</clipPath>
</defs>
</svg>
