<svg width="121" height="90" viewBox="0 0 121 90" fill="none" xmlns="http://www.w3.org/2000/svg">
<g clip-path="url(#clip0)">
<path d="M56.5215 54.125C56.5215 59.0495 55.9766 63.7116 54.8867 68.1113C53.7969 72.4707 52.1217 76.2852 49.8613 79.5547C47.6009 82.8242 44.735 85.4277 41.2637 87.3652C37.7923 89.2624 33.6549 90.2109 28.8516 90.2109C24.0885 90.2109 19.9512 89.2624 16.4395 87.3652C12.9681 85.4277 10.082 82.8242 7.78125 79.5547C5.52083 76.2852 3.82552 72.4707 2.69531 68.1113C1.60547 63.7116 1.04036 59.0495 1 54.125V35.7793C1.04036 30.8548 1.60547 26.2129 2.69531 21.8535C3.78516 17.4538 5.46029 13.599 7.7207 10.2891C10.0215 6.97917 12.9076 4.37565 16.3789 2.47852C19.8503 0.541016 23.9674 -0.427734 28.7305 -0.427734C33.5339 -0.427734 37.6712 0.541016 41.1426 2.47852C44.6543 4.37565 47.5404 6.97917 49.8008 10.2891C52.0612 13.5586 53.7363 17.3932 54.8262 21.793C55.9564 26.1927 56.5215 30.8548 56.5215 35.7793V54.125ZM8.26562 55.2148C8.26562 56.8698 8.32617 58.444 8.44727 59.9375L48.2266 23.9121C47.6615 21.3288 46.8743 18.9271 45.8652 16.707C44.8561 14.487 43.5443 12.5697 41.9297 10.9551C40.3555 9.34049 38.4785 8.06901 36.2988 7.14062C34.1191 6.21224 31.5964 5.74805 28.7305 5.74805C24.9766 5.74805 21.7878 6.53516 19.1641 8.10938C16.5807 9.68359 14.4818 11.8027 12.8672 14.4668C11.2526 17.1309 10.082 20.1986 9.35547 23.6699C8.62891 27.1413 8.26562 30.7741 8.26562 34.5684V55.2148ZM49.2559 34.5684C49.2559 33.2363 49.1953 31.9245 49.0742 30.6328L9.47656 66.5977C10.082 69.1003 10.9095 71.4212 11.959 73.5605C13.0085 75.6999 14.3203 77.5566 15.8945 79.1309C17.4688 80.6647 19.3255 81.8757 21.4648 82.7637C23.6042 83.6517 26.0664 84.0957 28.8516 84.0957C32.6055 84.0957 35.7741 83.3086 38.3574 81.7344C40.9811 80.1198 43.0801 77.9805 44.6543 75.3164C46.2689 72.6523 47.4395 69.5846 48.166 66.1133C48.8926 62.6419 49.2559 59.0091 49.2559 55.2148V34.5684Z" fill="url(#paint0_linear)" style="mix-blend-mode:overlay"/>
<path d="M70.4884 43.832L74.7873 0.84375H118.865V7.86719H80.963L77.9357 37.3535C80.1154 35.86 82.618 34.6895 85.4435 33.8418C88.269 32.9538 91.2964 32.5098 94.5255 32.5098C98.5216 32.5098 102.134 33.2161 105.363 34.6289C108.593 36.0013 111.337 37.959 113.598 40.502C115.858 43.0046 117.594 46.0117 118.805 49.5234C120.016 52.9948 120.621 56.7891 120.621 60.9062C120.621 64.9831 120.097 68.7975 119.047 72.3496C117.998 75.9017 116.383 79.0098 114.203 81.6738C112.064 84.2975 109.339 86.3763 106.029 87.9102C102.76 89.444 98.8849 90.2109 94.4044 90.2109C90.7313 90.2109 87.3205 89.666 84.172 88.5762C81.064 87.4863 78.3192 85.8919 75.9377 83.793C73.5965 81.694 71.6792 79.1309 70.1857 76.1035C68.7326 73.0762 67.8042 69.6452 67.4005 65.8105H74.424C74.7873 68.6764 75.4936 71.2396 76.5431 73.5C77.5926 75.7604 78.965 77.6777 80.6603 79.252C82.3556 80.8262 84.3537 82.0371 86.6544 82.8848C88.9552 83.6921 91.5386 84.0957 94.4044 84.0957C97.6336 84.0957 100.439 83.5104 102.82 82.3398C105.202 81.1693 107.18 79.5547 108.754 77.4961C110.328 75.3971 111.479 72.9551 112.205 70.1699C112.972 67.3444 113.356 64.2969 113.356 61.0273C113.356 57.9596 112.891 55.0938 111.963 52.4297C111.075 49.7656 109.763 47.4447 108.027 45.4668C106.292 43.4889 104.173 41.9349 101.67 40.8047C99.2078 39.6745 96.4025 39.1094 93.2541 39.1094C91.3973 39.1094 89.6818 39.2305 88.1076 39.4727C86.5737 39.7148 85.1206 40.1185 83.7482 40.6836C82.4162 41.2083 81.1245 41.8743 79.8732 42.6816C78.6623 43.4486 77.4513 44.377 76.2404 45.4668L70.4884 43.832Z" fill="url(#paint1_linear)" style="mix-blend-mode:overlay"/>
</g>
<defs>
<linearGradient id="paint0_linear" x1="70.5602" y1="122.619" x2="140.297" y2="-18.7002" gradientUnits="userSpaceOnUse">
<stop stop-color="#D70030"/>
<stop offset="1" stop-color="#420FCE"/>
</linearGradient>
<linearGradient id="paint1_linear" x1="70.5602" y1="122.619" x2="140.297" y2="-18.7002" gradientUnits="userSpaceOnUse">
<stop stop-color="#D70030"/>
<stop offset="1" stop-color="#420FCE"/>
</linearGradient>
<clipPath id="clip0">
<rect width="121" height="90" fill="white"/>
</clipPath>
</defs>
</svg>
