<svg width="670" height="664" viewBox="0 0 670 664" fill="none" xmlns="http://www.w3.org/2000/svg">
<g filter="url(#filter0_f)">
<circle cx="332.001" cy="332" r="244" transform="rotate(180 332.001 332)" fill="url(#paint0_linear)" style="mix-blend-mode:overlay"/>
</g>
<circle cx="332" cy="278" r="257" fill="#E8E8E8"/>
<circle cx="332" cy="260" r="257" fill="white"/>
<rect x="589" y="252" width="81" height="52" fill="#07090C"/>
<path d="M609.947 279.711C609.941 280.219 609.895 280.733 609.811 281.254C609.732 281.768 609.609 282.266 609.439 282.748C609.27 283.23 609.052 283.679 608.785 284.096C608.525 284.512 608.212 284.877 607.848 285.189C607.483 285.502 607.063 285.749 606.588 285.932C606.119 286.107 605.592 286.195 605.006 286.195C604.42 286.195 603.889 286.107 603.414 285.932C602.945 285.749 602.529 285.502 602.164 285.189C601.799 284.877 601.484 284.512 601.217 284.096C600.95 283.673 600.729 283.22 600.553 282.738C600.383 282.257 600.257 281.758 600.172 281.244C600.087 280.73 600.042 280.219 600.035 279.711V278.09C600.042 277.582 600.084 277.071 600.162 276.557C600.247 276.036 600.374 275.535 600.543 275.053C600.719 274.571 600.937 274.122 601.197 273.705C601.464 273.282 601.78 272.914 602.145 272.602C602.509 272.283 602.926 272.035 603.395 271.859C603.87 271.677 604.4 271.586 604.986 271.586C605.572 271.586 606.103 271.677 606.578 271.859C607.053 272.035 607.473 272.279 607.838 272.592C608.202 272.904 608.515 273.272 608.775 273.695C609.042 274.112 609.26 274.561 609.43 275.043C609.605 275.525 609.732 276.026 609.811 276.547C609.895 277.068 609.941 277.582 609.947 278.09V279.711ZM608.16 278.07C608.154 277.732 608.131 277.38 608.092 277.016C608.053 276.645 607.984 276.28 607.887 275.922C607.796 275.557 607.672 275.212 607.516 274.887C607.359 274.555 607.164 274.265 606.93 274.018C606.695 273.764 606.419 273.565 606.1 273.422C605.781 273.272 605.41 273.197 604.986 273.197C604.57 273.197 604.202 273.272 603.883 273.422C603.564 273.572 603.287 273.773 603.053 274.027C602.818 274.275 602.623 274.564 602.467 274.896C602.311 275.222 602.184 275.567 602.086 275.932C601.995 276.29 601.926 276.654 601.881 277.025C601.842 277.39 601.819 277.738 601.812 278.07V279.711C601.819 280.043 601.842 280.395 601.881 280.766C601.926 281.137 601.998 281.505 602.096 281.869C602.193 282.227 602.32 282.572 602.477 282.904C602.633 283.236 602.828 283.529 603.062 283.783C603.297 284.031 603.574 284.229 603.893 284.379C604.212 284.529 604.583 284.604 605.006 284.604C605.429 284.604 605.8 284.529 606.119 284.379C606.445 284.229 606.721 284.031 606.949 283.783C607.184 283.529 607.376 283.24 607.525 282.914C607.682 282.582 607.805 282.237 607.896 281.879C607.994 281.514 608.059 281.146 608.092 280.775C608.131 280.404 608.154 280.049 608.16 279.711V278.07ZM617.076 279.35L619.898 275.434H622.018L618.082 280.658L622.125 286H620.035L617.115 281.977L614.195 286H612.086L616.129 280.658L612.193 275.434H614.283L617.076 279.35ZM624.625 286V275.434H628.775C629.426 275.434 630.019 275.492 630.553 275.609C631.087 275.727 631.542 275.902 631.92 276.137C632.304 276.371 632.597 276.671 632.799 277.035C633.007 277.4 633.111 277.833 633.111 278.334C633.111 278.835 632.965 279.278 632.672 279.662C632.379 280.046 631.952 280.342 631.393 280.551C631.731 280.629 632.031 280.749 632.291 280.912C632.551 281.068 632.77 281.254 632.945 281.469C633.128 281.684 633.264 281.921 633.355 282.182C633.447 282.442 633.492 282.715 633.492 283.002C633.492 283.503 633.398 283.943 633.209 284.32C633.02 284.691 632.75 285.004 632.398 285.258C632.047 285.505 631.62 285.691 631.119 285.814C630.624 285.938 630.068 286 629.449 286H624.625ZM626.441 281.361V284.545H629.449C630.178 284.545 630.732 284.408 631.109 284.135C631.487 283.861 631.676 283.464 631.676 282.943C631.676 282.436 631.484 282.045 631.1 281.771C630.722 281.498 630.172 281.361 629.449 281.361H626.441ZM626.441 279.916H628.795C629.602 279.916 630.221 279.796 630.65 279.555C631.087 279.314 631.305 278.939 631.305 278.432C631.305 277.904 631.083 277.517 630.641 277.27C630.204 277.022 629.583 276.898 628.775 276.898H626.441V279.916ZM643.678 286C643.606 285.863 643.548 285.694 643.502 285.492C643.463 285.284 643.434 285.069 643.414 284.848C643.232 285.03 643.027 285.202 642.799 285.365C642.577 285.528 642.33 285.671 642.057 285.795C641.79 285.919 641.503 286.016 641.197 286.088C640.891 286.16 640.566 286.195 640.221 286.195C639.661 286.195 639.153 286.114 638.697 285.951C638.248 285.788 637.864 285.57 637.545 285.297C637.232 285.017 636.988 284.688 636.812 284.311C636.643 283.926 636.559 283.513 636.559 283.07C636.559 282.491 636.673 281.983 636.9 281.547C637.135 281.111 637.464 280.749 637.887 280.463C638.31 280.17 638.818 279.952 639.41 279.809C640.009 279.665 640.676 279.594 641.412 279.594H643.385V278.764C643.385 278.445 643.326 278.158 643.209 277.904C643.092 277.65 642.926 277.436 642.711 277.26C642.496 277.077 642.232 276.938 641.92 276.84C641.614 276.742 641.269 276.693 640.885 276.693C640.527 276.693 640.204 276.739 639.918 276.83C639.638 276.921 639.4 277.042 639.205 277.191C639.01 277.341 638.857 277.52 638.746 277.729C638.642 277.93 638.59 278.142 638.59 278.363H636.773C636.78 277.979 636.878 277.602 637.066 277.23C637.262 276.859 637.538 276.527 637.896 276.234C638.261 275.935 638.701 275.694 639.215 275.512C639.736 275.329 640.325 275.238 640.982 275.238C641.581 275.238 642.138 275.313 642.652 275.463C643.167 275.606 643.609 275.827 643.98 276.127C644.358 276.42 644.654 276.788 644.869 277.23C645.084 277.673 645.191 278.191 645.191 278.783V283.695C645.191 284.047 645.224 284.421 645.289 284.818C645.354 285.209 645.445 285.551 645.562 285.844V286H643.678ZM640.484 284.623C640.836 284.623 641.165 284.577 641.471 284.486C641.777 284.395 642.053 284.275 642.301 284.125C642.555 283.975 642.773 283.806 642.955 283.617C643.137 283.422 643.281 283.22 643.385 283.012V280.873H641.705C640.65 280.873 639.83 281.029 639.244 281.342C638.658 281.654 638.365 282.146 638.365 282.816C638.365 283.077 638.408 283.318 638.492 283.539C638.583 283.76 638.717 283.952 638.893 284.115C639.068 284.271 639.29 284.395 639.557 284.486C639.824 284.577 640.133 284.623 640.484 284.623ZM658.248 276.898H654.029V286H652.213V276.898H648.062V275.434H658.248V276.898Z" fill="white"/>
<path d="M396.544 263.747V245.29L404 252.008V276.33H398.779L378.523 257.826V276.35L371.154 269.589V245.29H376.229L396.544 263.747Z" fill="white"/>
<path d="M279.244 251.547H260.193L266.937 244.589H292.043V249.648L272.861 269.402H291.981L285.085 276.411H260V271.5L279.244 251.547Z" fill="white"/>
<path d="M313.758 277C311.228 277 308.93 276.598 306.866 275.794C304.894 275.046 303.092 273.932 301.561 272.514C300.084 271.135 298.921 269.472 298.145 267.632C297.338 265.724 296.931 263.68 296.946 261.618V260.441C296.946 258.01 297.341 255.79 298.13 253.78C298.867 251.854 299.991 250.089 301.439 248.589C302.857 247.136 304.571 245.984 306.472 245.206C308.48 244.39 310.639 243.98 312.816 244.001C315.183 244.001 317.293 244.378 319.147 245.133C320.938 245.848 322.545 246.938 323.852 248.324C325.175 249.76 326.172 251.448 326.781 253.28C327.471 255.345 327.809 257.506 327.782 259.676V263.146H305.495C305.641 264.181 305.975 265.183 306.482 266.105C307.453 267.877 309.071 269.235 311.02 269.915C312.062 270.276 313.162 270.455 314.269 270.444C315.101 270.444 315.932 270.364 316.748 270.206C317.554 270.053 318.342 269.821 319.1 269.515C319.839 269.215 320.54 268.835 321.19 268.382C321.833 267.935 322.406 267.4 322.891 266.794L327.43 270.817C326.736 271.737 325.942 272.582 325.061 273.338C324.155 274.076 323.156 274.698 322.087 275.19C320.868 275.756 319.591 276.195 318.277 276.5C316.797 276.842 315.279 277.01 313.758 277ZM312.756 250.618C311.861 250.608 310.973 250.773 310.146 251.103C309.359 251.425 308.651 251.902 308.065 252.504C307.445 253.147 306.938 253.884 306.562 254.685C306.157 255.527 306.08 255.817 305.879 256.856H319.722H319.495C319.461 256.021 319.287 255.196 318.979 254.415C318.69 253.673 318.246 252.997 317.674 252.43C317.082 251.855 316.374 251.404 315.594 251.106C314.689 250.767 313.726 250.602 312.756 250.618Z" fill="white"/>
<path d="M350.782 277C348.252 277 345.955 276.598 343.891 275.794C341.919 275.046 340.117 273.932 338.585 272.514C337.109 271.135 335.945 269.472 335.169 267.632C334.363 265.724 333.955 263.68 333.97 261.618V260.441C333.97 258.01 334.365 255.79 335.155 253.78C335.887 251.855 337.007 250.09 338.45 248.589C339.872 247.135 341.591 245.983 343.497 245.206C345.504 244.39 347.663 243.98 349.84 244.001C352.209 244.001 354.319 244.378 356.171 245.133C357.963 245.848 359.57 246.938 360.876 248.324C362.199 249.76 363.197 251.448 363.805 253.28C364.498 255.345 364.839 257.505 364.815 259.676V263.146H342.524C342.67 264.181 343.004 265.183 343.511 266.105C344.483 267.877 346.101 269.235 348.049 269.915C349.092 270.276 350.192 270.455 351.298 270.444C352.129 270.445 352.958 270.366 353.772 270.209C354.578 270.056 355.366 269.824 356.124 269.518C356.863 269.218 357.564 268.839 358.214 268.385C358.874 267.895 359.461 267.319 359.957 266.672L364.458 270.813C363.764 271.734 362.97 272.579 362.088 273.335C361.183 274.072 360.183 274.695 359.114 275.187C357.896 275.752 356.619 276.191 355.304 276.496C353.824 276.84 352.305 277.009 350.782 277ZM349.781 250.618C348.886 250.608 347.998 250.773 347.17 251.103C346.384 251.425 345.675 251.902 345.09 252.504C344.47 253.147 343.962 253.884 343.587 254.685C343.182 255.527 343.104 255.817 342.903 256.856H356.746H356.52C356.485 256.021 356.311 255.196 356.004 254.415C355.715 253.673 355.27 252.997 354.698 252.43C354.106 251.855 353.398 251.404 352.618 251.106C351.714 250.767 350.75 250.602 349.781 250.618Z" fill="white"/>
<path d="M396.544 263.747V245.29L404 252.008V276.33H398.779L378.523 257.826V276.35L371.154 269.589V245.29H376.229L396.544 263.747Z" stroke="#C1C1C1"/>
<path d="M279.244 251.547H260.193L266.937 244.589H292.043V249.648L272.861 269.402H291.981L285.085 276.411H260V271.5L279.244 251.547Z" stroke="#C1C1C1"/>
<path d="M313.758 277C311.228 277 308.93 276.598 306.866 275.794C304.894 275.046 303.092 273.932 301.561 272.514C300.084 271.135 298.921 269.472 298.145 267.632C297.338 265.724 296.931 263.68 296.946 261.618V260.441C296.946 258.01 297.341 255.79 298.13 253.78C298.867 251.854 299.991 250.089 301.439 248.589C302.857 247.136 304.571 245.984 306.472 245.206C308.48 244.39 310.639 243.98 312.816 244.001C315.183 244.001 317.293 244.378 319.147 245.133C320.938 245.848 322.545 246.938 323.852 248.324C325.175 249.76 326.172 251.448 326.781 253.28C327.471 255.345 327.809 257.506 327.782 259.676V263.146H305.495C305.641 264.181 305.975 265.183 306.482 266.105C307.453 267.877 309.071 269.235 311.02 269.915C312.062 270.276 313.162 270.455 314.269 270.444C315.101 270.444 315.932 270.364 316.748 270.206C317.554 270.053 318.342 269.821 319.1 269.515C319.839 269.215 320.54 268.835 321.19 268.382C321.833 267.935 322.406 267.4 322.891 266.794L327.43 270.817C326.736 271.737 325.942 272.582 325.061 273.338C324.155 274.076 323.156 274.698 322.087 275.19C320.868 275.756 319.591 276.195 318.277 276.5C316.797 276.842 315.279 277.01 313.758 277ZM312.756 250.618C311.861 250.608 310.973 250.773 310.146 251.103C309.359 251.425 308.651 251.902 308.065 252.504C307.445 253.147 306.938 253.884 306.562 254.685C306.157 255.527 306.08 255.817 305.879 256.856H319.722H319.495C319.461 256.021 319.287 255.196 318.979 254.415C318.69 253.673 318.246 252.997 317.674 252.43C317.082 251.855 316.374 251.404 315.594 251.106C314.689 250.767 313.726 250.602 312.756 250.618Z" stroke="#C1C1C1"/>
<path d="M350.782 277C348.252 277 345.955 276.598 343.891 275.794C341.919 275.046 340.117 273.932 338.585 272.514C337.109 271.135 335.945 269.472 335.169 267.632C334.363 265.724 333.955 263.68 333.97 261.618V260.441C333.97 258.01 334.365 255.79 335.155 253.78C335.887 251.855 337.007 250.09 338.45 248.589C339.872 247.135 341.591 245.983 343.497 245.206C345.504 244.39 347.663 243.98 349.84 244.001C352.209 244.001 354.319 244.378 356.171 245.133C357.963 245.848 359.57 246.938 360.876 248.324C362.199 249.76 363.197 251.448 363.805 253.28C364.498 255.345 364.839 257.505 364.815 259.676V263.146H342.524C342.67 264.181 343.004 265.183 343.511 266.105C344.483 267.877 346.101 269.235 348.049 269.915C349.092 270.276 350.192 270.455 351.298 270.444C352.129 270.445 352.958 270.366 353.772 270.209C354.578 270.056 355.366 269.824 356.124 269.518C356.863 269.218 357.564 268.839 358.214 268.385C358.874 267.895 359.461 267.319 359.957 266.672L364.458 270.813C363.764 271.734 362.97 272.579 362.088 273.335C361.183 274.072 360.183 274.695 359.114 275.187C357.896 275.752 356.619 276.191 355.304 276.496C353.824 276.84 352.305 277.009 350.782 277ZM349.781 250.618C348.886 250.608 347.998 250.773 347.17 251.103C346.384 251.425 345.675 251.902 345.09 252.504C344.47 253.147 343.962 253.884 343.587 254.685C343.182 255.527 343.104 255.817 342.903 256.856H356.746H356.52C356.485 256.021 356.311 255.196 356.004 254.415C355.715 253.673 355.27 252.997 354.698 252.43C354.106 251.855 353.398 251.404 352.618 251.106C351.714 250.767 350.75 250.602 349.781 250.618Z" stroke="#C1C1C1"/>
<defs>
<filter id="filter0_f" x="0.000946045" y="0" width="664" height="664" filterUnits="userSpaceOnUse" color-interpolation-filters="sRGB">
<feFlood flood-opacity="0" result="BackgroundImageFix"/>
<feBlend mode="normal" in="SourceGraphic" in2="BackgroundImageFix" result="shape"/>
<feGaussianBlur stdDeviation="44" result="effect1_foregroundBlur"/>
</filter>
<linearGradient id="paint0_linear" x1="368.191" y1="663.917" x2="674.955" y2="123.358" gradientUnits="userSpaceOnUse">
<stop stop-color="#D70030"/>
<stop offset="1" stop-color="#420FCE"/>
</linearGradient>
</defs>
</svg>
