<svg width="298" height="181" viewBox="0 0 298 181" fill="none" xmlns="http://www.w3.org/2000/svg">
<g filter="url(#filter0_f)">
<circle cx="90.5" cy="90.5" r="39.5" fill="url(#paint0_linear)" style="mix-blend-mode:overlay"/>
</g>
<circle cx="90.5" cy="69.5" r="54.5" fill="#E8E8E8"/>
<circle cx="90.5" cy="60.5" r="54.5" fill="white"/>
<rect x="145" y="39" width="153" height="52" fill="#07090C"/>
<rect x="145" y="39" width="153" height="52" fill="url(#paint1_linear)" style="mix-blend-mode:overlay"/>
<path d="M158.682 58.7812L160.996 65.8906L163.496 58.7812H165.742V73H163.984V67.3262L164.131 61.3887L161.504 69.0449H160.469L158.057 61.5938L158.203 67.3262V73H156.445V58.7812H158.682ZM173.379 73.1953C172.637 73.1953 171.953 73.0684 171.328 72.8145C170.71 72.5605 170.179 72.2057 169.736 71.75C169.294 71.2943 168.949 70.7539 168.701 70.1289C168.454 69.5039 168.33 68.8236 168.33 68.0879V67.6777C168.33 66.8249 168.467 66.0632 168.74 65.3926C169.014 64.7155 169.375 64.1458 169.824 63.6836C170.28 63.2148 170.794 62.8568 171.367 62.6094C171.947 62.362 172.539 62.2383 173.145 62.2383C173.906 62.2383 174.57 62.3717 175.137 62.6387C175.71 62.8991 176.185 63.2637 176.562 63.7324C176.94 64.1947 177.22 64.7415 177.402 65.373C177.591 66.0046 177.686 66.6882 177.686 67.4238V68.2344H170.137C170.156 68.7161 170.247 69.1686 170.41 69.5918C170.579 70.015 170.807 70.3861 171.094 70.7051C171.387 71.0176 171.735 71.265 172.139 71.4473C172.542 71.6296 172.988 71.7207 173.477 71.7207C174.121 71.7207 174.694 71.5905 175.195 71.3301C175.697 71.0697 176.113 70.7246 176.445 70.2949L177.549 71.1543C177.373 71.4212 177.152 71.6784 176.885 71.9258C176.624 72.1667 176.322 72.3815 175.977 72.5703C175.632 72.7591 175.241 72.9089 174.805 73.0195C174.368 73.1367 173.893 73.1953 173.379 73.1953ZM173.145 63.7227C172.78 63.7227 172.435 63.791 172.109 63.9277C171.784 64.0579 171.491 64.2533 171.23 64.5137C170.97 64.7676 170.749 65.0833 170.566 65.4609C170.391 65.832 170.267 66.2617 170.195 66.75H175.879V66.6133C175.859 66.2617 175.791 65.9134 175.674 65.5684C175.563 65.2233 175.397 64.9141 175.176 64.6406C174.954 64.3672 174.674 64.1458 174.336 63.9766C174.004 63.8073 173.607 63.7227 173.145 63.7227ZM189.639 67.834C189.639 68.5892 189.548 69.2956 189.365 69.9531C189.183 70.6042 188.916 71.1706 188.564 71.6523C188.213 72.1341 187.777 72.5117 187.256 72.7852C186.742 73.0586 186.152 73.1953 185.488 73.1953C184.844 73.1953 184.274 73.0911 183.779 72.8828C183.291 72.6745 182.871 72.375 182.52 71.9844V77.0625H180.713V62.4336H182.363L182.451 63.5859C182.803 63.1497 183.226 62.8177 183.721 62.5898C184.222 62.3555 184.801 62.2383 185.459 62.2383C186.136 62.2383 186.735 62.3717 187.256 62.6387C187.777 62.9056 188.213 63.2767 188.564 63.752C188.916 64.2272 189.183 64.7969 189.365 65.4609C189.548 66.1185 189.639 66.8411 189.639 67.6289V67.834ZM187.832 67.6289C187.832 67.1146 187.773 66.6263 187.656 66.1641C187.546 65.6953 187.37 65.2852 187.129 64.9336C186.895 64.5755 186.595 64.2923 186.23 64.084C185.866 63.8757 185.43 63.7715 184.922 63.7715C184.342 63.7715 183.854 63.9082 183.457 64.1816C183.066 64.4486 182.754 64.7936 182.52 65.2168V70.3047C182.754 70.7214 183.066 71.0632 183.457 71.3301C183.848 71.5905 184.342 71.7207 184.941 71.7207C185.443 71.7207 185.876 71.6165 186.24 71.4082C186.605 71.1934 186.904 70.9069 187.139 70.5488C187.373 70.1908 187.546 69.7773 187.656 69.3086C187.773 68.8398 187.832 68.3483 187.832 67.834V67.6289ZM192.227 67.6191C192.227 66.8574 192.337 66.151 192.559 65.5C192.78 64.8424 193.096 64.2728 193.506 63.791C193.923 63.3092 194.427 62.9316 195.02 62.6582C195.612 62.3783 196.279 62.2383 197.021 62.2383C197.77 62.2383 198.441 62.3783 199.033 62.6582C199.632 62.9316 200.137 63.3092 200.547 63.791C200.964 64.2728 201.283 64.8424 201.504 65.5C201.725 66.151 201.836 66.8574 201.836 67.6191V67.834C201.836 68.5957 201.725 69.3021 201.504 69.9531C201.283 70.6042 200.964 71.1706 200.547 71.6523C200.137 72.1341 199.635 72.5117 199.043 72.7852C198.451 73.0586 197.783 73.1953 197.041 73.1953C196.292 73.1953 195.618 73.0586 195.02 72.7852C194.427 72.5117 193.923 72.1341 193.506 71.6523C193.096 71.1706 192.78 70.6042 192.559 69.9531C192.337 69.3021 192.227 68.5957 192.227 67.834V67.6191ZM194.033 67.834C194.033 68.3548 194.095 68.8529 194.219 69.3281C194.342 69.7969 194.528 70.2103 194.775 70.5684C195.029 70.9264 195.345 71.2096 195.723 71.418C196.1 71.6263 196.54 71.7305 197.041 71.7305C197.536 71.7305 197.969 71.6263 198.34 71.418C198.717 71.2096 199.03 70.9264 199.277 70.5684C199.531 70.2103 199.72 69.7969 199.844 69.3281C199.967 68.8529 200.029 68.3548 200.029 67.834V67.6191C200.029 67.1048 199.964 66.6133 199.834 66.1445C199.71 65.6693 199.521 65.2526 199.268 64.8945C199.02 64.5365 198.708 64.2533 198.33 64.0449C197.959 63.8301 197.523 63.7227 197.021 63.7227C196.52 63.7227 196.084 63.8301 195.713 64.0449C195.342 64.2533 195.029 64.5365 194.775 64.8945C194.528 65.2526 194.342 65.6693 194.219 66.1445C194.095 66.6133 194.033 67.1048 194.033 67.6191V67.834ZM213.428 73H211.621V63.9277H206.465V73H204.658V62.4336H213.428V73ZM225.674 67.834C225.674 68.5892 225.583 69.2956 225.4 69.9531C225.218 70.6042 224.951 71.1706 224.6 71.6523C224.248 72.1341 223.812 72.5117 223.291 72.7852C222.777 73.0586 222.188 73.1953 221.523 73.1953C220.879 73.1953 220.309 73.0911 219.814 72.8828C219.326 72.6745 218.906 72.375 218.555 71.9844V77.0625H216.748V62.4336H218.398L218.486 63.5859C218.838 63.1497 219.261 62.8177 219.756 62.5898C220.257 62.3555 220.837 62.2383 221.494 62.2383C222.171 62.2383 222.77 62.3717 223.291 62.6387C223.812 62.9056 224.248 63.2767 224.6 63.752C224.951 64.2272 225.218 64.7969 225.4 65.4609C225.583 66.1185 225.674 66.8411 225.674 67.6289V67.834ZM223.867 67.6289C223.867 67.1146 223.809 66.6263 223.691 66.1641C223.581 65.6953 223.405 65.2852 223.164 64.9336C222.93 64.5755 222.63 64.2923 222.266 64.084C221.901 63.8757 221.465 63.7715 220.957 63.7715C220.378 63.7715 219.889 63.9082 219.492 64.1816C219.102 64.4486 218.789 64.7936 218.555 65.2168V70.3047C218.789 70.7214 219.102 71.0632 219.492 71.3301C219.883 71.5905 220.378 71.7207 220.977 71.7207C221.478 71.7207 221.911 71.6165 222.275 71.4082C222.64 71.1934 222.939 70.9069 223.174 70.5488C223.408 70.1908 223.581 69.7773 223.691 69.3086C223.809 68.8398 223.867 68.3483 223.867 67.834V67.6289ZM235.645 62.4336H237.451V73H235.645V65.207L230.479 73H228.682V62.4336H230.479V70.2363L235.645 62.4336ZM249.404 62.4336V73H247.598V68.8887H244.316L241.807 73H239.854L242.52 68.6152C241.842 68.3678 241.322 67.987 240.957 67.4727C240.592 66.9518 240.41 66.3464 240.41 65.6562C240.41 65.1875 240.501 64.7578 240.684 64.3672C240.872 63.9701 241.139 63.6315 241.484 63.3516C241.829 63.0651 242.253 62.8405 242.754 62.6777C243.255 62.515 243.818 62.4336 244.443 62.4336H249.404ZM242.227 65.6758C242.227 65.8971 242.266 66.112 242.344 66.3203C242.422 66.5286 242.542 66.7142 242.705 66.877C242.874 67.0332 243.083 67.1602 243.33 67.2578C243.577 67.3555 243.874 67.4043 244.219 67.4043H247.598V63.8984H244.443C244.072 63.8984 243.747 63.9505 243.467 64.0547C243.187 64.1523 242.956 64.2858 242.773 64.4551C242.591 64.6178 242.454 64.8066 242.363 65.0215C242.272 65.2298 242.227 65.4479 242.227 65.6758ZM262.295 63.8984H258.076V73H256.26V63.8984H252.109V62.4336H262.295V63.8984ZM271.68 62.4336H273.486V73H271.68V65.207L266.514 73H264.717V62.4336H266.514V70.2363L271.68 62.4336ZM281.484 73.1953C280.742 73.1953 280.059 73.0684 279.434 72.8145C278.815 72.5605 278.285 72.2057 277.842 71.75C277.399 71.2943 277.054 70.7539 276.807 70.1289C276.559 69.5039 276.436 68.8236 276.436 68.0879V67.6777C276.436 66.8249 276.572 66.0632 276.846 65.3926C277.119 64.7155 277.48 64.1458 277.93 63.6836C278.385 63.2148 278.9 62.8568 279.473 62.6094C280.052 62.362 280.645 62.2383 281.25 62.2383C282.012 62.2383 282.676 62.3717 283.242 62.6387C283.815 62.8991 284.29 63.2637 284.668 63.7324C285.046 64.1947 285.326 64.7415 285.508 65.373C285.697 66.0046 285.791 66.6882 285.791 67.4238V68.2344H278.242C278.262 68.7161 278.353 69.1686 278.516 69.5918C278.685 70.015 278.913 70.3861 279.199 70.7051C279.492 71.0176 279.84 71.265 280.244 71.4473C280.648 71.6296 281.094 71.7207 281.582 71.7207C282.227 71.7207 282.799 71.5905 283.301 71.3301C283.802 71.0697 284.219 70.7246 284.551 70.2949L285.654 71.1543C285.479 71.4212 285.257 71.6784 284.99 71.9258C284.73 72.1667 284.427 72.3815 284.082 72.5703C283.737 72.7591 283.346 72.9089 282.91 73.0195C282.474 73.1367 281.999 73.1953 281.484 73.1953ZM281.25 63.7227C280.885 63.7227 280.54 63.791 280.215 63.9277C279.889 64.0579 279.596 64.2533 279.336 64.5137C279.076 64.7676 278.854 65.0833 278.672 65.4609C278.496 65.832 278.372 66.2617 278.301 66.75H283.984V66.6133C283.965 66.2617 283.896 65.9134 283.779 65.5684C283.669 65.2233 283.503 64.9141 283.281 64.6406C283.06 64.3672 282.78 64.1458 282.441 63.9766C282.109 63.8073 281.712 63.7227 281.25 63.7227Z" fill="white"/>
<defs>
<filter id="filter0_f" x="0" y="0" width="181" height="181" filterUnits="userSpaceOnUse" color-interpolation-filters="sRGB">
<feFlood flood-opacity="0" result="BackgroundImageFix"/>
<feBlend mode="normal" in="SourceGraphic" in2="BackgroundImageFix" result="shape"/>
<feGaussianBlur stdDeviation="25.5" result="effect1_foregroundBlur"/>
</filter>
<linearGradient id="paint0_linear" x1="96.3586" y1="144.233" x2="146.019" y2="56.724" gradientUnits="userSpaceOnUse">
<stop stop-color="#D70030"/>
<stop offset="1" stop-color="#420FCE"/>
</linearGradient>
<linearGradient id="paint1_linear" x1="232.846" y1="100.368" x2="247.007" y2="26.9486" gradientUnits="userSpaceOnUse">
<stop stop-color="#D70030"/>
<stop offset="1" stop-color="#420FCE"/>
</linearGradient>
</defs>
</svg>
