<svg width="1095" height="257" viewBox="0 0 1095 257" fill="none" xmlns="http://www.w3.org/2000/svg">
<path d="M1038.3 153.499V10.0298L1095 62.2434V251.305H1055.29L901.267 107.472V251.462L845.23 198.909V10.0298L883.823 10.0298L1038.3 153.499Z" fill="url(#paint0_linear)" style="mix-blend-mode:overlay"/>
<path d="M146.338 58.66L1.46693 58.66L52.7482 4.58204L243.656 4.58204V43.9027L97.7951 197.457H243.192L190.749 251.934L0 251.934L0 213.764L146.338 58.66Z" fill="url(#paint1_linear)" style="mix-blend-mode:overlay"/>
<path d="M408.783 256.51C389.542 256.51 372.074 253.387 356.377 247.14C341.383 241.324 327.679 232.663 316.037 221.645C304.806 210.921 295.959 197.995 290.06 183.692C283.926 168.863 280.827 152.975 280.941 136.95V127.798C280.941 108.904 283.944 91.6451 289.95 76.0202C295.548 61.0496 304.1 47.3329 315.108 35.6705C325.893 24.3789 338.925 15.4254 353.382 9.37606C368.649 3.03174 385.064 -0.156838 401.62 0.0059319C419.622 0.0059319 435.669 2.93965 449.759 8.80707C463.386 14.3645 475.604 22.8349 485.54 33.6125C495.599 44.7724 503.186 57.8946 507.813 72.1341C513.057 88.1887 515.63 104.981 515.429 121.854V148.826L345.95 148.826C347.062 156.872 349.603 164.66 353.456 171.828C360.844 185.602 373.146 196.159 387.965 201.439C395.891 204.244 404.255 205.637 412.671 205.556C419 205.551 425.314 204.931 431.521 203.703C437.65 202.513 443.642 200.712 449.405 198.328C455.023 196.002 460.355 193.05 465.297 189.527C470.188 186.052 474.544 181.893 478.23 177.179L512.752 208.449C507.474 215.604 501.432 222.175 494.733 228.049C487.845 233.781 480.245 238.619 472.118 242.443C462.851 246.84 453.139 250.253 443.146 252.624C431.892 255.286 420.354 256.591 408.783 256.51ZM401.168 51.4448C394.362 51.3643 387.609 52.6449 381.315 55.2098C375.337 57.7169 369.95 61.4272 365.497 66.1053C360.783 71.1025 356.922 76.827 354.067 83.0538C350.986 89.6032 350.4 91.855 348.872 99.9298L454.136 99.9298H452.412C452.151 93.4376 450.825 87.0306 448.488 80.9595C446.289 75.1916 442.91 69.9365 438.562 65.5242C434.058 61.0555 428.674 57.5527 422.744 55.234C415.867 52.6015 408.539 51.3147 401.168 51.4448Z" fill="url(#paint2_linear)" style="mix-blend-mode:overlay"/>
<path d="M690.323 256.51C671.082 256.51 653.613 253.387 637.917 247.14C622.922 241.324 609.219 232.663 597.577 221.645C586.346 210.921 577.499 197.995 571.6 183.692C565.466 168.863 562.367 152.975 562.481 136.95V127.798C562.481 108.904 565.484 91.6451 571.49 76.0202C577.058 61.0575 585.577 47.3414 596.55 35.6705C607.363 24.3679 620.43 15.4138 634.922 9.37606C650.189 3.03174 666.604 -0.156838 683.16 0.0059319C701.17 0.0059319 717.217 2.93965 731.299 8.80707C744.926 14.3645 757.144 22.8349 767.08 33.6125C777.138 44.7724 784.725 57.8946 789.353 72.1341C794.618 88.1853 797.211 104.978 797.03 121.854V148.826L627.526 148.826C628.638 156.872 631.179 164.66 635.032 171.828C642.42 185.602 654.723 196.159 669.542 201.439C677.467 204.244 685.831 205.637 694.247 205.556C700.563 205.557 706.865 204.945 713.06 203.728C719.19 202.537 725.181 200.736 730.945 198.352C736.563 196.027 741.894 193.074 746.836 189.551C751.856 185.743 756.316 181.261 760.088 176.235L794.316 208.425C789.038 215.58 782.997 222.151 776.297 228.025C769.409 233.757 761.809 238.594 753.682 242.419C744.415 246.816 734.704 250.229 724.71 252.6C713.449 255.272 701.903 256.585 690.323 256.51ZM682.707 51.4448C675.901 51.3643 669.149 52.6449 662.855 55.2098C656.877 57.7169 651.49 61.4272 647.037 66.1053C642.322 71.1025 638.462 76.827 635.607 83.0538C632.526 89.6032 631.94 91.855 630.411 99.9298L735.676 99.9298H733.952C733.69 93.4376 732.365 87.0306 730.028 80.9595C727.829 75.1916 724.45 69.9365 720.102 65.5242C715.598 61.0555 710.213 57.5527 704.283 55.234C697.406 52.6015 690.079 51.3147 682.707 51.4448Z" fill="url(#paint3_linear)" style="mix-blend-mode:overlay"/>
<defs>
<linearGradient id="paint0_linear" x1="-1.88215e-06" y1="128.764" x2="172.291" y2="-275.716" gradientUnits="userSpaceOnUse">
<stop stop-color="#D70030"/>
<stop offset="1" stop-color="#420FCE"/>
</linearGradient>
<linearGradient id="paint1_linear" x1="-1.88215e-06" y1="128.764" x2="172.291" y2="-275.716" gradientUnits="userSpaceOnUse">
<stop stop-color="#D70030"/>
<stop offset="1" stop-color="#420FCE"/>
</linearGradient>
<linearGradient id="paint2_linear" x1="-1.88215e-06" y1="128.764" x2="172.291" y2="-275.716" gradientUnits="userSpaceOnUse">
<stop stop-color="#D70030"/>
<stop offset="1" stop-color="#420FCE"/>
</linearGradient>
<linearGradient id="paint3_linear" x1="-1.88215e-06" y1="128.764" x2="172.291" y2="-275.716" gradientUnits="userSpaceOnUse">
<stop stop-color="#D70030"/>
<stop offset="1" stop-color="#420FCE"/>
</linearGradient>
</defs>
</svg>
