<svg width="122" height="45" viewBox="0 0 122 45" fill="none" xmlns="http://www.w3.org/2000/svg">
<path d="M115.533 17.1455V1.1203L121.842 6.95245V28.0701H117.424L100.285 12.0044V28.0877L94.0501 22.2177V1.1203H98.3443L115.533 17.1455Z" fill="white"/>
<path d="M16.2833 6.55219H0.163227L5.86937 0.511804H27.112V4.90383L10.8818 22.0555H27.0603L21.225 28.1405H0V23.8769L16.2833 6.55219Z" fill="white"/>
<path d="M45.4859 28.6516C43.345 28.6516 41.4012 28.3027 39.6547 27.605C37.9862 26.9553 36.4614 25.9879 35.1659 24.7572C33.9163 23.5594 32.9318 22.1155 32.2754 20.518C31.5929 18.8616 31.248 17.087 31.2607 15.297V14.2747C31.2607 12.1644 31.5949 10.2366 32.2632 8.49128C32.8861 6.8191 33.8377 5.28698 35.0625 3.98432C36.2626 2.72306 37.7128 1.72299 39.3214 1.04728C41.0202 0.338638 42.8467 -0.0175184 44.6889 0.000662579C46.692 0.000662579 48.4775 0.328352 50.0454 0.98373C51.5616 1.60448 52.9212 2.5506 54.0268 3.75444C55.146 5.00098 55.9902 6.46669 56.5051 8.05722C57.0887 9.85048 57.3749 11.7262 57.3526 13.6108V16.6236H38.4944C38.6181 17.5223 38.9008 18.3921 39.3296 19.1928C40.1516 20.7313 41.5205 21.9105 43.1695 22.5003C44.0514 22.8136 44.9821 22.9692 45.9185 22.9601C46.6228 22.9596 47.3253 22.8903 48.016 22.7532C48.698 22.6202 49.3647 22.4191 50.006 22.1528C50.6311 21.893 51.2243 21.5632 51.7743 21.1697C52.3185 20.7816 52.8033 20.317 53.2134 19.7905L57.0547 23.2833C56.4674 24.0825 55.7952 24.8165 55.0497 25.4725C54.2832 26.1128 53.4376 26.6532 52.5333 27.0803C51.5021 27.5715 50.4215 27.9527 49.3095 28.2175C48.0573 28.5148 46.7734 28.6606 45.4859 28.6516ZM44.6385 5.74627C43.8812 5.73728 43.1299 5.88031 42.4295 6.16681C41.7643 6.44684 41.1649 6.86127 40.6694 7.38381C40.1448 7.94199 39.7153 8.5814 39.3976 9.27693C39.0548 10.0085 38.9895 10.26 38.8195 11.1619H50.5324H50.3406C50.3115 10.4368 50.164 9.72112 49.904 9.04299C49.6593 8.39874 49.2833 7.81175 48.7995 7.3189C48.2983 6.81976 47.6992 6.42851 47.0393 6.16951C46.2741 5.87547 45.4588 5.73174 44.6385 5.74627Z" fill="white"/>
<path d="M2.65516 43.326C2.51365 43.4788 2.34029 43.5992 2.14718 43.6786C1.95407 43.758 1.74585 43.7945 1.53706 43.7857C1.32851 43.795 1.12042 43.7591 0.92715 43.6807C0.73388 43.6023 0.560028 43.4831 0.417589 43.3314C0.139196 43.0294 0 42.612 0 42.0792C0 41.5464 0.139196 41.129 0.417589 40.827C0.559006 40.6736 0.73251 40.5528 0.925909 40.4731C1.11931 40.3935 1.32791 40.3569 1.53706 40.3659C1.74587 40.3561 1.95433 40.3917 2.14791 40.4701C2.34148 40.5486 2.51552 40.6681 2.65788 40.8203C2.93537 41.1232 3.07366 41.5406 3.07275 42.0724C3.07184 42.6043 2.93265 43.0222 2.65516 43.326ZM1.53706 43.28C1.67407 43.2869 1.81078 43.2613 1.93589 43.2054C2.06101 43.1494 2.17094 43.0647 2.25661 42.9581C2.44125 42.7006 2.53195 42.3882 2.5137 42.0724C2.5326 41.7568 2.44448 41.444 2.26342 41.184C2.17663 41.0772 2.06544 40.9925 1.93911 40.937C1.81277 40.8815 1.67494 40.8568 1.53706 40.8649C1.40028 40.8572 1.26363 40.8819 1.13832 40.9369C1.013 40.9919 0.902584 41.0757 0.816135 41.1813C0.63301 41.4439 0.54435 41.7603 0.564494 42.0792C0.545058 42.393 0.633822 42.704 0.816135 42.9609C0.902304 43.067 1.01259 43.1513 1.13793 43.2067C1.26326 43.2622 1.40006 43.2873 1.53706 43.28Z" fill="white"/>
<path d="M5.61909 40.3659C6.01719 40.3659 6.31916 40.4831 6.525 40.7175C6.7304 40.9528 6.83377 41.3247 6.83377 41.8358V43.7086H6.28968V41.7655C6.28968 41.4545 6.22031 41.2268 6.08157 41.0826C6.00933 41.0096 5.92248 40.9526 5.82665 40.9151C5.73081 40.8776 5.62813 40.8605 5.52524 40.8649C4.98115 40.8649 4.7091 41.161 4.7091 41.7533V43.7086H4.16501V40.443H4.67918V40.8379C4.87777 40.5232 5.19107 40.3659 5.61909 40.3659Z" fill="white"/>
<path d="M9.72697 43.2232H10.6519V43.7086H8.26065V43.2232H9.18016V39.5803H8.38987L8.14503 39.0948H9.72697V43.2232Z" fill="white"/>
<path d="M13.7709 43.2232H14.6768V43.7086H12.3168V43.2232H13.2241V40.9244H12.3168V40.4389H13.7709V43.2232ZM13.4989 39.8426C13.4541 39.8431 13.4098 39.8346 13.3684 39.8176C13.327 39.8007 13.2895 39.7756 13.2581 39.7439C13.2258 39.7127 13.2003 39.6752 13.1833 39.6338C13.1662 39.5924 13.1579 39.548 13.1588 39.5032C13.1577 39.4572 13.1659 39.4115 13.183 39.3688C13.2 39.326 13.2256 39.2871 13.2581 39.2544C13.2889 39.2217 13.3262 39.1956 13.3677 39.178C13.4091 39.1603 13.4538 39.1513 13.4989 39.1516C13.5451 39.1507 13.5909 39.1593 13.6336 39.177C13.6762 39.1947 13.7146 39.2211 13.7464 39.2544C13.7791 39.287 13.8049 39.3259 13.8222 39.3686C13.8395 39.4114 13.848 39.4571 13.8471 39.5032C13.8484 39.5485 13.8402 39.5936 13.8228 39.6356C13.8055 39.6775 13.7795 39.7153 13.7464 39.7466C13.713 39.7789 13.6734 39.804 13.6299 39.8205C13.5864 39.837 13.54 39.8445 13.4934 39.8426H13.4989Z" fill="white"/>
<path d="M17.4993 40.3659C17.8983 40.3659 18.2003 40.4831 18.4052 40.7175C18.6106 40.9528 18.714 41.3247 18.714 41.8358V43.7086H18.1699V41.7655C18.1699 41.4545 18.1005 41.2268 17.9618 41.0826C17.8895 41.0096 17.8027 40.9526 17.7069 40.9151C17.611 40.8776 17.5083 40.8605 17.4054 40.8649C16.8614 40.8649 16.5893 41.161 16.5893 41.7533V43.7086H16.0452V40.443H16.5594V40.8379C16.758 40.5232 17.0713 40.3659 17.4993 40.3659Z" fill="white"/>
<path d="M22.777 41.9318C22.7779 42.0515 22.7715 42.1712 22.7579 42.2901H20.4632C20.4867 42.5626 20.5956 42.8209 20.7747 43.0285C20.8564 43.1173 20.9564 43.1874 21.068 43.2341C21.1795 43.2808 21.2999 43.3029 21.4208 43.2989C21.7012 43.2986 21.9723 43.1988 22.1853 43.0176L22.4941 43.376C22.1976 43.6469 21.8085 43.7953 21.4059 43.7911C21.198 43.7989 20.991 43.7593 20.8009 43.6751C20.6109 43.5909 20.4428 43.4646 20.3095 43.3057C20.0295 42.9585 19.8846 42.5226 19.9015 42.0779C19.9015 41.5451 20.0375 41.1277 20.3095 40.8257C20.4474 40.6744 20.6171 40.5553 20.8067 40.4768C20.9962 40.3982 21.2008 40.3622 21.4059 40.3713C21.5894 40.3652 21.7722 40.3973 21.9425 40.4655C22.1128 40.5337 22.2668 40.6366 22.3948 40.7675C22.6496 41.029 22.777 41.4171 22.777 41.9318ZM20.4496 41.8169H22.2302C22.222 41.4716 22.1363 41.2246 21.9731 41.0759C21.8193 40.9299 21.6144 40.8494 21.4018 40.8514C21.2766 40.8438 21.1512 40.8628 21.0339 40.9071C20.9167 40.9514 20.8102 41.02 20.7217 41.1083C20.5508 41.3058 20.4546 41.5564 20.4496 41.8169Z" fill="white"/>
<path d="M29.5332 41.7844V43.019H28.9728V41.7844H27.7486V41.2543H28.9728V40.0144H29.5319V41.2543H30.7669V41.7844H29.5332Z" fill="white"/>
<path d="M38.2958 43.326C37.9979 43.6187 37.5959 43.7829 37.177 43.7829C36.7581 43.7829 36.3561 43.6187 36.0582 43.326C35.7798 43.024 35.6406 42.6066 35.6406 42.0738C35.6406 41.541 35.7798 41.1236 36.0582 40.8216C36.3555 40.5275 36.7575 40.3618 37.177 40.3605C37.5964 40.3593 37.9994 40.5225 38.2985 40.8149C38.576 41.1178 38.7143 41.5352 38.7134 42.067C38.7125 42.5989 38.5733 43.0185 38.2958 43.326ZM37.1777 43.28C37.3147 43.2869 37.4514 43.2613 37.5765 43.2054C37.7016 43.1494 37.8116 43.0647 37.8972 42.9581C38.0819 42.7006 38.1726 42.3882 38.1543 42.0724C38.1732 41.7568 38.0851 41.444 37.904 41.184C37.8118 41.0838 37.6996 41.0038 37.5745 40.9491C37.4495 40.8944 37.3143 40.8661 37.1777 40.8661C37.0411 40.8661 36.9059 40.8944 36.7809 40.9491C36.6558 41.0038 36.5436 41.0838 36.4513 41.184C36.2682 41.4466 36.1795 41.763 36.1997 42.0819C36.1817 42.3951 36.2714 42.7051 36.454 42.9609C36.5405 43.0674 36.6512 43.1519 36.7771 43.2074C36.9029 43.2629 37.0402 43.2878 37.1777 43.28Z" fill="white"/>
<path d="M41.7412 39.6506C41.6023 39.6346 41.4625 39.6723 41.3509 39.7561C41.3134 39.7967 41.2847 39.8446 41.2664 39.8967C41.2482 39.9487 41.2408 40.004 41.2448 40.059V40.443H42.1969V40.9285H41.2448V43.2272H42.1194V43.7127H40.0056V43.2272H40.7007V40.9285H40.0056V40.443H40.7007V39.9643C40.7007 39.6736 40.7904 39.4681 40.9727 39.3437C41.1776 39.2133 41.4179 39.1486 41.661 39.1584C41.9093 39.1559 42.155 39.2081 42.3806 39.3112V39.7845C42.18 39.6936 41.9617 39.6479 41.7412 39.6506Z" fill="white"/>
<path d="M45.7036 39.6506C45.5651 39.6349 45.4259 39.6727 45.3146 39.7561C45.2771 39.7967 45.2484 39.8446 45.2301 39.8967C45.2119 39.9487 45.2045 40.004 45.2085 40.059V40.443H46.1606V40.9285H45.2085V43.2272H46.0817V43.7127H43.9652V43.2272H44.6603V40.9285H43.9652V40.443H44.6603V39.9643C44.6603 39.6736 44.7501 39.4681 44.9323 39.3437C45.1373 39.2134 45.3775 39.1488 45.6206 39.1584C45.8693 39.1559 46.1155 39.2081 46.3415 39.3112V39.7845C46.1414 39.6938 45.9235 39.6481 45.7036 39.6506Z" fill="white"/>
<path d="M49.3272 43.2232H50.2535V43.7086H47.8623V43.2232H48.7804V39.5803H47.9901L47.7439 39.0948H49.3245L49.3272 43.2232Z" fill="white"/>
<path d="M53.3712 43.2232H54.273V43.7086H51.9185V43.2232H52.8244V40.9244H51.9185V40.4389H53.3712V43.2232ZM53.0991 39.8426C53.0086 39.8426 52.9217 39.8069 52.8577 39.7432C52.7937 39.6796 52.7577 39.5932 52.7577 39.5032C52.7568 39.4571 52.7653 39.4114 52.7826 39.3686C52.7999 39.3259 52.8257 39.287 52.8584 39.2544C52.889 39.2215 52.9263 39.1953 52.9678 39.1776C53.0092 39.1599 53.054 39.1511 53.0991 39.1516C53.1453 39.1509 53.1911 39.1596 53.2337 39.1773C53.2763 39.195 53.3148 39.2212 53.3467 39.2544C53.3789 39.2873 53.4043 39.3263 53.4213 39.369C53.4383 39.4117 53.4467 39.4573 53.446 39.5032C53.4472 39.5484 53.4391 39.5934 53.422 39.6353C53.4049 39.6771 53.3793 39.7151 53.3467 39.7466C53.3134 39.7786 53.2739 39.8035 53.2307 39.82C53.1874 39.8365 53.1413 39.8442 53.095 39.8426H53.0991Z" fill="white"/>
<path d="M57.0996 40.3659C57.4976 40.3659 57.7996 40.4831 58.0055 40.7175C58.2122 40.9528 58.3142 41.3247 58.3142 41.8358V43.7086H57.7701V41.7655C57.7701 41.4545 57.6994 41.2246 57.5607 41.0826C57.4885 41.0096 57.4016 40.9524 57.3058 40.9149C57.2099 40.8774 57.1072 40.8604 57.0043 40.8649C56.4602 40.8649 56.1905 41.161 56.195 41.7533V43.7086H55.6509V40.443H56.1651V40.8379C56.3591 40.5232 56.6706 40.3659 57.0996 40.3659Z" fill="white"/>
<path d="M62.3772 41.9318C62.3788 42.0515 62.3725 42.1712 62.3582 42.2901H60.0635C60.0876 42.5625 60.1964 42.8205 60.375 43.0285C60.4567 43.1172 60.5567 43.1873 60.6683 43.234C60.7798 43.2806 60.9001 43.3028 61.0211 43.2989C61.3014 43.2986 61.5725 43.1988 61.7855 43.0176L62.0943 43.376C61.798 43.6471 61.4088 43.7956 61.0061 43.7911C60.7982 43.7989 60.5912 43.7593 60.4012 43.6751C60.2111 43.5909 60.043 43.4646 59.9098 43.3057C59.6297 42.9585 59.4848 42.5226 59.5017 42.0779C59.5017 41.5451 59.6377 41.1277 59.9098 40.8257C60.0477 40.6745 60.2175 40.5554 60.407 40.4769C60.5964 40.3984 60.801 40.3623 61.0061 40.3713C61.1898 40.3652 61.3728 40.3972 61.5433 40.4654C61.7139 40.5337 61.8682 40.6366 61.9964 40.7675C62.2512 41.029 62.3781 41.4171 62.3772 41.9318ZM60.0499 41.8169H61.8318C61.8227 41.4716 61.737 41.2246 61.5747 41.0759C61.4206 40.9296 61.2151 40.849 61.002 40.8514C60.8769 40.844 60.7515 40.863 60.6343 40.9073C60.517 40.9516 60.4106 41.0201 60.3219 41.1083C60.1511 41.3058 60.0549 41.5564 60.0499 41.8169Z" fill="white"/>
<path d="M70.2978 41.9318C70.2987 42.0515 70.2924 42.1712 70.2788 42.2901H67.9841C68.0075 42.5626 68.1165 42.8209 68.2956 43.0285C68.3772 43.1173 68.4773 43.1874 68.5888 43.2341C68.7003 43.2808 68.8207 43.3029 68.9417 43.2989C69.222 43.2986 69.4931 43.1988 69.7061 43.0176L70.0149 43.376C69.7185 43.6469 69.3293 43.7953 68.9267 43.7911C68.7188 43.7989 68.5118 43.7593 68.3218 43.6751C68.1317 43.5909 67.9636 43.4646 67.8304 43.3057C67.5503 42.9585 67.4054 42.5226 67.4223 42.0779C67.4223 41.5451 67.5583 41.1277 67.8304 40.8257C67.9682 40.6744 68.138 40.5553 68.3275 40.4768C68.517 40.3982 68.7216 40.3622 68.9267 40.3713C69.1102 40.3652 69.293 40.3973 69.4633 40.4655C69.6336 40.5337 69.7877 40.6366 69.9156 40.7675C70.1704 41.029 70.2978 41.4171 70.2978 41.9318ZM67.9705 41.8169H69.751C69.7429 41.4716 69.6572 41.2246 69.4939 41.0759C69.3402 40.9299 69.1352 40.8494 68.9226 40.8514C68.7974 40.8438 68.672 40.8628 68.5548 40.9071C68.4375 40.9514 68.3311 41.02 68.2425 41.1083C68.0717 41.3058 67.9755 41.5564 67.9705 41.8169Z" fill="white"/>
<path d="M72.5925 43.7086L71.3398 40.443H71.911L72.7272 42.635C72.7736 42.74 72.8101 42.8491 72.836 42.9609C72.8537 42.8973 72.8891 42.7891 72.9462 42.635L73.7487 40.443H74.3078L73.0441 43.7086H72.5925Z" fill="white"/>
<path d="M78.213 41.9318C78.2142 42.0516 78.2074 42.1713 78.1926 42.2901H75.9006C75.9253 42.5623 76.0341 42.8202 76.2121 43.0285C76.2939 43.117 76.394 43.187 76.5055 43.2337C76.617 43.2804 76.7373 43.3026 76.8582 43.2989C77.139 43.2985 77.4104 43.1988 77.624 43.0176L77.9328 43.376C77.6363 43.6469 77.2472 43.7953 76.8446 43.7911C76.6367 43.7989 76.4297 43.7593 76.2397 43.6751C76.0496 43.5909 75.8815 43.4646 75.7482 43.3057C75.4682 42.9585 75.3233 42.5226 75.3402 42.0779C75.3402 41.5451 75.4762 41.1277 75.7482 40.8257C75.8862 40.6745 76.0559 40.5554 76.2454 40.4769C76.4349 40.3984 76.6395 40.3623 76.8446 40.3713C77.0283 40.3652 77.2113 40.3972 77.3818 40.4654C77.5523 40.5337 77.7066 40.6366 77.8348 40.7675C78.0869 41.029 78.213 41.4171 78.213 41.9318ZM75.8856 41.8169H77.6689C77.6607 41.4716 77.575 41.2246 77.4118 41.0759C77.2577 40.9296 77.0522 40.849 76.8391 40.8514C76.7139 40.8437 76.5885 40.8626 76.4712 40.907C76.354 40.9513 76.2475 41.0199 76.159 41.1083C75.9892 41.3061 75.8944 41.5568 75.8911 41.8169H75.8856Z" fill="white"/>
<path d="M80.86 40.3659C81.2581 40.3659 81.56 40.4831 81.7659 40.7175C81.9726 40.9528 82.0747 41.3247 82.0747 41.8358V43.7086H81.5306V41.7655C81.5306 41.4545 81.4598 41.2246 81.3211 41.0826C81.2489 41.0096 81.1621 40.9524 81.0662 40.9149C80.9704 40.8774 80.8677 40.8604 80.7648 40.8649C80.2207 40.8649 79.9486 41.161 79.9486 41.7533V43.7086H79.4045V40.443H79.9187V40.8379C80.1182 40.5232 80.432 40.3659 80.86 40.3659Z" fill="white"/>
<path d="M84.9937 43.7857C84.436 43.7857 84.1576 43.513 84.1585 42.9676V40.9285H83.4063V40.443H84.1585V39.3612L84.7026 39.0908V40.443H85.8085V40.9285H84.7026V42.7945C84.6934 42.9249 84.7289 43.0545 84.8033 43.1623C84.8526 43.2095 84.9119 43.2452 84.9768 43.2667C85.0418 43.2883 85.1107 43.2951 85.1787 43.2867C85.3926 43.2831 85.6015 43.2214 85.7826 43.1082L85.7187 43.6383C85.4925 43.7446 85.2438 43.7952 84.9937 43.7857Z" fill="white"/>
<path d="M91.2997 45V40.443H91.8438V40.7243C91.9592 40.609 92.0966 40.518 92.248 40.4564C92.3994 40.3949 92.5617 40.3641 92.7252 40.3659C92.9233 40.3575 93.1207 40.3947 93.3019 40.4747C93.4832 40.5547 93.6433 40.6753 93.7699 40.827C94.0242 41.1326 94.1521 41.5491 94.1521 42.0724C94.1521 42.5958 94.0161 43.019 93.7604 43.3287C93.6368 43.4763 93.4811 43.5941 93.3051 43.6733C93.1292 43.7524 92.9374 43.7909 92.7443 43.7857C92.5748 43.7928 92.406 43.7619 92.2501 43.6955C92.0943 43.629 91.9554 43.5286 91.8438 43.4017V44.7377L91.2997 45ZM92.6763 43.28C92.8066 43.2867 92.9367 43.2618 93.0552 43.2074C93.1737 43.1529 93.277 43.0707 93.3564 42.9676C93.5166 42.6987 93.6012 42.3918 93.6012 42.0792C93.6012 41.7666 93.5166 41.4597 93.3564 41.1908C93.2767 41.0845 93.1721 40.9992 93.0517 40.9424C92.9312 40.8856 92.7986 40.859 92.6654 40.8649C92.5007 40.8554 92.3367 40.8924 92.1923 40.9716C92.0479 41.0508 91.929 41.169 91.8492 41.3125V42.8391C91.9398 42.9748 92.0627 43.086 92.207 43.163C92.3513 43.2399 92.5125 43.2801 92.6763 43.28Z" fill="white"/>
<path d="M96.8481 43.2232H97.7744V43.7086H95.3831V43.2232H96.304V39.5803H95.5137L95.2702 39.0948H96.8481V43.2232Z" fill="white"/>
<path d="M100.319 43.7857C100.009 43.8011 99.7039 43.6997 99.4651 43.5017C99.3553 43.398 99.2695 43.2716 99.2139 43.1315C99.1582 42.9913 99.1339 42.8408 99.1428 42.6904C99.1319 42.536 99.1594 42.3812 99.2227 42.2398C99.286 42.0983 99.3833 41.9745 99.5059 41.8791C99.7666 41.6921 100.083 41.5969 100.404 41.6086C100.712 41.6046 101.017 41.6771 101.291 41.8196V41.5681C101.291 41.0831 101.059 40.8401 100.595 40.8392C100.222 40.8502 99.8603 40.9701 99.5549 41.184L99.3944 40.731C99.7686 40.4935 100.203 40.3669 100.647 40.3659C100.782 40.365 100.916 40.3814 101.046 40.4146C101.178 40.4489 101.303 40.5052 101.416 40.5809C101.547 40.6696 101.648 40.7954 101.705 40.942C101.781 41.1283 101.817 41.3281 101.812 41.5288V43.7086H101.291V43.4071C101.029 43.6541 100.68 43.7899 100.319 43.7857ZM100.39 43.3124C100.564 43.3101 100.736 43.2687 100.892 43.1912C101.048 43.1137 101.184 43.0021 101.291 42.8648V42.3023C101.045 42.1521 100.763 42.0725 100.474 42.0724C100.27 42.0651 100.069 42.1198 99.8963 42.2293C99.8212 42.279 99.7603 42.3472 99.7198 42.4274C99.6793 42.5075 99.6604 42.5968 99.6651 42.6864C99.6618 42.7712 99.6772 42.8558 99.7103 42.934C99.7435 43.0123 99.7935 43.0824 99.8569 43.1393C100.005 43.26 100.193 43.3217 100.385 43.3124H100.39Z" fill="white"/>
<path d="M104.795 43.7857C104.237 43.7857 103.958 43.513 103.958 42.9676V40.9285H103.206V40.443H103.958V39.3612L104.502 39.0908V40.443H105.608V40.9285H104.502V42.7945C104.492 42.9248 104.527 43.0544 104.601 43.1623C104.651 43.2095 104.711 43.2451 104.776 43.2666C104.841 43.2881 104.91 43.295 104.978 43.2867C105.192 43.2831 105.401 43.2214 105.582 43.1082L105.518 43.6383C105.292 43.7444 105.044 43.795 104.795 43.7857Z" fill="white"/>
<path d="M109.063 39.6506C108.924 39.6349 108.785 39.6727 108.674 39.7561C108.636 39.7967 108.608 39.8446 108.589 39.8967C108.571 39.9487 108.564 40.004 108.568 40.059V40.443H109.52V40.9285H108.568V43.2272H109.442V43.7127H107.322V43.2272H108.016V40.9285H107.322V40.443H108.016V39.9643C108.016 39.6736 108.105 39.4681 108.288 39.3437C108.49 39.2148 108.727 39.1502 108.968 39.1584C109.216 39.1558 109.463 39.208 109.689 39.3112V39.7845C109.492 39.6955 109.279 39.6498 109.063 39.6506Z" fill="white"/>
<path d="M113.537 43.326C113.239 43.6186 112.837 43.7827 112.419 43.7827C112 43.7827 111.598 43.6186 111.3 43.326C111.022 43.024 110.882 42.6066 110.882 42.0738C110.881 41.541 111.02 41.1236 111.3 40.8216C111.598 40.5275 112 40.3618 112.419 40.3605C112.839 40.3593 113.242 40.5225 113.541 40.8149C113.813 41.1178 113.949 41.5352 113.949 42.067C113.949 42.5989 113.811 43.0185 113.537 43.326ZM112.419 43.28C112.556 43.2869 112.692 43.2613 112.817 43.2054C112.943 43.1494 113.052 43.0647 113.138 42.9581C113.323 42.7006 113.413 42.3882 113.395 42.0724C113.414 41.7568 113.326 41.444 113.145 41.184C113.053 41.0838 112.94 41.0038 112.815 40.9491C112.69 40.8944 112.555 40.8661 112.419 40.8661C112.282 40.8661 112.147 40.8944 112.022 40.9491C111.897 41.0038 111.784 41.0838 111.692 41.184C111.51 41.4468 111.421 41.7631 111.442 42.0819C111.424 42.3958 111.513 42.7066 111.695 42.9636C111.782 43.0695 111.893 43.1534 112.018 43.2084C112.144 43.2634 112.281 43.288 112.419 43.28Z" fill="white"/>
<path d="M117.189 40.3659C117.438 40.3534 117.686 40.4065 117.908 40.5201V41.6492H117.364V40.9082C117.321 40.9082 117.254 40.9082 117.164 40.9082C116.864 40.8983 116.567 40.9835 116.318 41.1516C116.208 41.2275 116.118 41.3301 116.058 41.4498C115.998 41.5694 115.97 41.7023 115.976 41.8358V43.2286H116.928V43.714H114.727V43.2286H115.407V40.9298H114.727V40.4444H115.935V41.0136C116.057 40.8075 116.24 40.6433 116.458 40.5431C116.685 40.4286 116.935 40.368 117.189 40.3659Z" fill="white"/>
<path d="M121.196 40.3659C121.312 40.3572 121.428 40.3773 121.535 40.4245C121.641 40.4718 121.733 40.5446 121.804 40.6364C121.935 40.8167 122 41.1042 122 41.4991V43.71H121.468V41.7087C121.479 41.4926 121.453 41.2763 121.391 41.0691C121.367 41.0079 121.325 40.956 121.269 40.9213C121.213 40.8866 121.147 40.8711 121.082 40.8771C121.006 40.8764 120.931 40.8986 120.868 40.9409C120.805 40.9831 120.756 41.0434 120.728 41.1137C120.644 41.3114 120.604 41.5252 120.613 41.7398V43.7086H120.079V41.6492C120.087 41.4558 120.062 41.2625 120.006 41.0772C119.987 41.0156 119.948 40.9621 119.894 40.9255C119.841 40.889 119.777 40.8714 119.712 40.8757C119.634 40.8759 119.558 40.8987 119.493 40.9415C119.428 40.9843 119.377 41.0451 119.346 41.1164C119.253 41.3103 119.209 41.5238 119.218 41.7384V43.7073H118.68V40.443H119.182V40.8649C119.309 40.5323 119.522 40.3659 119.818 40.3659C119.968 40.3627 120.114 40.4153 120.226 40.5133C120.335 40.607 120.415 40.7287 120.459 40.8649C120.652 40.5323 120.89 40.3659 121.196 40.3659Z" fill="white"/>
<path d="M76.8133 28.6516C74.6723 28.6516 72.7286 28.3027 70.982 27.605C69.3135 26.9553 67.7887 25.9879 66.4933 24.7572C65.2436 23.5594 64.2592 22.1155 63.6028 20.518C62.9203 18.8616 62.5754 17.087 62.5881 15.297V14.2747C62.5881 12.1644 62.9222 10.2366 63.5905 8.49128C64.2102 6.81999 65.1581 5.28793 66.379 3.98432C67.5822 2.72184 69.0362 1.72168 70.6488 1.04728C72.3475 0.338638 74.174 -0.0175184 76.0162 0.000662579C78.0203 0.000662579 79.8058 0.328352 81.3728 0.98373C82.889 1.60448 84.2485 2.5506 85.3542 3.75444C86.4734 5.00098 87.3176 6.46669 87.8325 8.05722C88.4184 9.8501 88.7069 11.7258 88.6867 13.6108V16.6236H69.8258C69.9495 17.5223 70.2323 18.3921 70.661 19.1928C71.4831 20.7313 72.852 21.9105 74.5009 22.5003C75.3828 22.8136 76.3135 22.9692 77.2499 22.9601C77.9528 22.9602 78.6539 22.8919 79.3433 22.7559C80.0253 22.6229 80.692 22.4218 81.3333 22.1555C81.9584 21.8957 82.5517 21.5659 83.1016 21.1724C83.6602 20.7471 84.1565 20.2465 84.5761 19.685L88.3848 23.2806C87.7974 24.0798 87.1252 24.8138 86.3798 25.4698C85.6133 26.1101 84.7676 26.6505 83.8633 27.0776C82.8322 27.5688 81.7516 27.95 80.6396 28.2148C79.3866 28.5133 78.1018 28.6599 76.8133 28.6516ZM75.9659 5.74627C75.2086 5.73728 74.4573 5.88031 73.7569 6.16681C73.0917 6.44684 72.4923 6.86127 71.9967 7.38381C71.4722 7.94199 71.0426 8.5814 70.7249 9.27693C70.3822 10.0085 70.3169 10.26 70.1468 11.1619H81.8597H81.668C81.6389 10.4368 81.4914 9.72112 81.2313 9.04299C80.9867 8.39874 80.6106 7.81175 80.1268 7.3189C79.6257 6.81976 79.0265 6.42851 78.3667 6.16951C77.6015 5.87547 76.7861 5.73174 75.9659 5.74627Z" fill="white"/>
</svg>
