<svg width="248" height="793" viewBox="0 0 248 793" fill="none" xmlns="http://www.w3.org/2000/svg">
<path fill-rule="evenodd" clip-rule="evenodd" d="M-224.592 658.204C-277.504 617.396 -349.536 592.463 -371.785 529.456C-393.619 467.623 -340.041 406.273 -336.679 340.785C-332.289 255.294 -397.365 161.378 -349.252 90.5746C-301.669 20.5516 -198.095 22.2604 -113.942 13.0058C-29.3885 3.70714 71.5554 -20.5261 133.799 37.4518C196.606 95.9538 155.976 201.752 177.808 284.761C194.536 348.36 256.124 399.669 246.163 464.672C236.055 530.624 169.843 568.245 126.58 619.039C74.6673 679.991 47.4413 782.539 -32.1279 791.413C-111.615 800.278 -161.26 707.048 -224.592 658.204Z" fill="url(#paint0_linear)" style="mix-blend-mode:overlay"/>
<defs>
<linearGradient id="paint0_linear" x1="20" y1="823" x2="209.727" y2="-70.551" gradientUnits="userSpaceOnUse">
<stop stop-color="#D70030"/>
<stop offset="1" stop-color="#420FCE"/>
</linearGradient>
</defs>
</svg>
