<svg width="173" height="464" viewBox="0 0 173 464" fill="none" xmlns="http://www.w3.org/2000/svg">
<g filter="url(#filter0_d)">
<path d="M78.2581 57.6756L28.4799 57.6756L46.596 38L112.193 38L112.193 51.7788L62.2884 105.231L112.247 105.231L94.0136 124.678L28.4799 124.678L28.4799 111.285L78.2581 57.6756Z" fill="white"/>
<path d="M45.3527 367.216L45.3527 417.491L26.5898 399.695L26.5898 333.443L40.2325 333.443L93.5096 384.062L93.5095 333.605L112.411 351.804L112.411 418L99.1674 418L45.3527 367.216Z" fill="white"/>
<path d="M113.999 276.139C113.999 282.816 112.915 288.878 110.748 294.326C108.73 299.529 105.725 304.285 101.902 308.325C98.1811 312.222 93.6962 315.293 88.7338 317.34C83.5886 319.468 78.0762 320.544 72.5163 320.504L69.3408 320.504C62.7855 320.504 56.7972 319.462 51.376 317.378C46.1818 315.435 41.4226 312.467 37.3762 308.647C33.4585 304.905 30.352 300.382 28.2531 295.365C26.0519 290.067 24.9456 284.37 25.0021 278.625C25.0021 272.378 26.0199 266.809 28.0557 261.919C29.9839 257.19 32.9228 252.95 36.6622 249.502C40.5342 246.011 45.0871 243.378 50.0277 241.772C55.598 239.952 61.4243 239.06 67.2784 239.13L76.6368 239.13L76.6368 297.944C79.4284 297.558 82.1303 296.677 84.6174 295.339C89.3966 292.776 93.0592 288.506 94.8915 283.364C95.8645 280.613 96.348 277.711 96.3196 274.79C96.3181 272.593 96.1029 270.402 95.6769 268.248C95.2639 266.121 94.6391 264.042 93.812 262.042C93.005 260.092 91.9805 258.242 90.7583 256.527C89.5526 254.83 88.1094 253.318 86.474 252.039L97.3234 240.059C99.806 241.89 102.086 243.987 104.124 246.312C106.113 248.702 107.791 251.34 109.118 254.16C110.644 257.376 111.828 260.746 112.65 264.214C113.574 268.12 114.027 272.124 113.999 276.139ZM42.8493 278.782C42.8214 281.144 43.2657 283.487 44.1556 285.671C45.0254 287.746 46.3128 289.615 47.9359 291.161C49.6697 292.797 51.6559 294.137 53.8164 295.127C56.0887 296.196 56.87 296.4 59.6716 296.93L59.6716 260.4L59.6716 260.998C57.4191 261.089 55.1961 261.549 53.0897 262.36C51.0885 263.123 49.2652 264.296 47.7343 265.805C46.1838 267.368 44.9685 269.236 44.164 271.294C43.2506 273.681 42.8042 276.224 42.8493 278.782Z" fill="white"/>
<path d="M113.999 178.436C113.999 185.113 112.915 191.175 110.748 196.622C108.73 201.826 105.725 206.581 101.902 210.622C98.1811 214.519 93.6962 217.589 88.7338 219.636C83.5886 221.765 78.0762 222.841 72.5163 222.801L69.3408 222.801C62.7855 222.801 56.7972 221.759 51.376 219.675C46.1845 217.742 41.4256 214.786 37.3762 210.978C33.4547 207.225 30.348 202.691 28.2531 197.661C26.0519 192.363 24.9456 186.667 25.002 180.922C25.002 174.671 26.0199 169.103 28.0557 164.216C29.9839 159.487 32.9228 155.247 36.6622 151.798C40.5342 148.308 45.0871 145.675 50.0277 144.069C55.5968 142.242 61.4232 141.342 67.2784 141.405L76.6368 141.405L76.6368 200.228C79.4284 199.842 82.1303 198.96 84.6174 197.623C89.3966 195.059 93.0592 190.79 94.8915 185.647C95.8645 182.897 96.348 179.994 96.3196 177.074C96.3201 174.882 96.1076 172.695 95.6853 170.545C95.2723 168.418 94.6475 166.339 93.8204 164.339C93.0134 162.389 91.9889 160.539 90.7667 158.824C89.4454 157.082 87.8904 155.534 86.1464 154.225L97.315 142.347C99.7976 144.178 102.078 146.275 104.115 148.6C106.104 150.99 107.783 153.628 109.11 156.448C110.635 159.664 111.819 163.034 112.642 166.502C113.569 170.41 114.025 174.417 113.999 178.436ZM42.8493 181.079C42.8214 183.44 43.2657 185.784 44.1556 187.968C45.0254 190.043 46.3128 191.912 47.9359 193.457C49.6697 195.093 51.6559 196.433 53.8164 197.424C56.0887 198.493 56.87 198.697 59.6716 199.227L59.6716 162.697L59.6716 163.295C57.4191 163.386 55.1961 163.846 53.0897 164.657C51.0885 165.42 49.2652 166.593 47.7343 168.101C46.1838 169.664 44.9685 171.533 44.164 173.591C43.2506 175.978 42.8041 178.52 42.8493 181.079Z" fill="white"/>
</g>
<defs>
<filter id="filter0_d" x="-1.52588e-05" y="0" width="173" height="464" filterUnits="userSpaceOnUse" color-interpolation-filters="sRGB">
<feFlood flood-opacity="0" result="BackgroundImageFix"/>
<feColorMatrix in="SourceAlpha" type="matrix" values="0 0 0 0 0 0 0 0 0 0 0 0 0 0 0 0 0 0 127 0"/>
<feOffset dx="17" dy="4"/>
<feGaussianBlur stdDeviation="21"/>
<feColorMatrix type="matrix" values="0 0 0 0 1 0 0 0 0 1 0 0 0 0 1 0 0 0 0.33 0"/>
<feBlend mode="normal" in2="BackgroundImageFix" result="effect1_dropShadow"/>
<feBlend mode="normal" in="SourceGraphic" in2="effect1_dropShadow" result="shape"/>
</filter>
</defs>
</svg>
