<svg width="89" height="380" viewBox="0 0 89 380" fill="none" xmlns="http://www.w3.org/2000/svg">
<path opacity="0.6" fill-rule="evenodd" clip-rule="evenodd" d="M57.8444 17.6756L5.47994 74.0703L5.47994 84.6778L68.1472 84.6778L82.6304 69.2312L32.685 69.2312L85.1926 12.9903L85.1926 2L22.4731 2L8.04006 17.6756L57.8444 17.6756ZM3.47994 19.6756L53.2581 19.6756L3.47994 73.2849L3.47994 86.6778L69.0136 86.6778L87.2473 67.2312L37.2884 67.2312L87.1926 13.7788L87.1926 -3.81131e-06L21.596 -9.43991e-07L3.47994 19.6756ZM18.3527 324.579L74.9621 378L85.4111 378L85.4111 314.655L70.5096 300.307L70.5096 350.721L14.4339 297.443L3.5898 297.443L3.5898 360.835L18.3527 374.837L18.3527 324.579ZM20.3527 379.491L20.3527 329.216L74.1674 380L87.4111 380L87.4111 313.804L68.5096 295.605L68.5096 346.062L15.2325 295.443L1.5898 295.443L1.5898 361.695L20.3527 379.491ZM86.9988 238.139L86.9988 238.125C87.0256 234.269 86.5909 230.424 85.7042 226.674C84.9139 223.343 83.7765 220.106 82.3111 217.017L82.3083 217.011C81.0572 214.352 79.4758 211.865 77.6028 209.611C76.0618 207.855 74.3762 206.236 72.5647 204.772L64.3335 213.861C65.4633 214.924 66.487 216.099 67.3888 217.369C68.6982 219.207 69.7956 221.189 70.6599 223.277C71.5376 225.399 72.2009 227.606 72.6393 229.862C73.0896 232.14 73.3174 234.457 73.3196 236.779C73.3492 239.93 72.8271 243.062 71.777 246.031L71.7755 246.035C69.778 251.641 65.7835 256.301 60.5645 259.101C57.8682 260.551 54.9383 261.507 51.9106 261.925L49.6368 262.24L49.6368 203.13L42.2665 203.13L42.2546 203.129C36.6197 203.062 31.0112 203.922 25.6488 205.674L25.6459 205.675C20.9767 207.192 16.6722 209.68 13.0096 212.98C9.49096 216.227 6.72401 220.22 4.90767 224.674L4.9049 224.681L4.90209 224.688C2.98423 229.294 2.00207 234.595 2.00207 240.625L2.00207 240.635L2.00197 240.645C1.94815 246.12 3.00232 251.548 5.09927 256.596C7.09144 261.357 10.0386 265.647 13.7537 269.197C17.6058 272.833 22.135 275.657 27.0766 277.505L27.0852 277.508L27.0937 277.511C32.2584 279.497 37.9995 280.504 44.3408 280.504L47.5234 280.504L47.5305 280.505C52.8229 280.542 58.0705 279.518 62.9692 277.492L62.9711 277.491C67.6731 275.551 71.9242 272.642 75.4522 268.947C79.0948 265.097 81.959 260.564 83.8831 255.602L83.8862 255.594L83.8894 255.586C85.9511 250.405 86.9988 244.598 86.9988 238.139ZM76.9018 270.325C73.1812 274.222 68.6962 277.293 63.7338 279.34C58.5886 281.468 53.0762 282.544 47.5163 282.504L44.3408 282.504C37.7855 282.504 31.7972 281.462 26.376 279.378C21.1818 277.435 16.4226 274.467 12.3763 270.647C8.4585 266.905 5.35202 262.382 3.25313 257.365C1.0519 252.067 -0.0544069 246.37 0.0020673 240.625C0.00206702 234.378 1.01995 228.809 3.05571 223.919C4.98392 219.19 7.9228 214.95 11.6622 211.502C15.5342 208.011 20.0871 205.378 25.0277 203.772C30.598 201.952 36.4243 201.06 42.2785 201.13L51.6368 201.13L51.6368 259.944C52.3093 259.851 52.9765 259.73 53.6368 259.58C55.7176 259.107 57.7294 258.354 59.6174 257.339C64.3966 254.776 68.0592 250.506 69.8915 245.364C70.8645 242.613 71.348 239.711 71.3196 236.79C71.3181 234.593 71.1029 232.402 70.6769 230.248C70.2639 228.121 69.6391 226.042 68.812 224.042C68.005 222.092 66.9805 220.242 65.7583 218.527C64.9404 217.376 64.0131 216.309 62.9907 215.343C62.506 214.885 62 214.45 61.474 214.039L72.3235 202.059C74.806 203.89 77.0859 205.987 79.1238 208.312C81.1128 210.702 82.7911 213.34 84.118 216.16C85.6438 219.376 86.8279 222.746 87.6505 226.214C88.574 230.12 89.0267 234.124 88.9988 238.139C88.9988 244.816 87.9151 250.878 85.7477 256.326C83.7297 261.529 80.7248 266.285 76.9018 270.325ZM19.1556 247.671C18.2657 245.487 17.8214 243.144 17.8493 240.782C17.8042 238.224 18.2506 235.681 19.164 233.294C19.9685 231.236 21.1838 229.368 22.7343 227.805C24.2652 226.296 26.0885 225.123 28.0897 224.36C29.5696 223.79 31.1069 223.394 32.6716 223.177C33.3342 223.085 34.0016 223.025 34.6716 222.998L34.6716 258.93C33.8656 258.778 33.2268 258.652 32.6716 258.525C31.2971 258.211 30.435 257.889 28.8164 257.127C26.6559 256.137 24.6697 254.797 22.9359 253.161C21.3128 251.615 20.0255 249.746 19.1556 247.671ZM27.9741 258.941C30.4367 260.099 31.3922 260.345 34.2997 260.895L36.6716 261.344L36.6716 222.4L34.6475 222.4L34.5911 221C32.1209 221.1 29.6835 221.604 27.3741 222.493C25.1144 223.355 23.0569 224.679 21.3303 226.38L21.3223 226.388L21.3144 226.396C19.5706 228.154 18.205 230.255 17.3013 232.566L17.2987 232.573L17.2961 232.579C16.2946 235.196 15.8034 237.984 15.8491 240.788C15.8221 243.406 16.3164 246.003 17.3034 248.426L17.3072 248.435L17.3112 248.445C18.2874 250.773 19.7328 252.873 21.5567 254.609L21.5633 254.615C23.453 256.399 25.6181 257.86 27.9741 258.941ZM86.9988 140.436L86.9988 140.423C87.0236 136.564 86.5862 132.716 85.6961 128.964C84.9058 125.632 83.7683 122.394 82.3027 119.305L82.2999 119.299C81.0488 116.64 79.4675 114.153 77.5946 111.899C76.046 110.134 74.3513 108.508 72.5296 107.038L64.0672 116.038C65.2741 117.121 66.3769 118.319 67.3602 119.615L67.3782 119.639L67.3955 119.663C68.7056 121.502 69.8036 123.485 70.6683 125.574C71.546 127.696 72.2094 129.903 72.6478 132.16C73.0945 134.433 73.3194 136.746 73.3196 139.064C73.3491 142.215 72.827 145.346 71.777 148.314L71.7755 148.319C69.778 153.925 65.7835 158.585 60.5645 161.385C57.8682 162.834 54.9383 163.791 51.9106 164.209L49.6368 164.523L49.6368 105.405L42.2677 105.405L42.257 105.405C36.6209 105.344 31.0124 106.21 25.6512 107.969L25.6459 107.971C20.9767 109.489 16.6722 111.977 13.0096 115.277C9.49095 118.523 6.72401 122.516 4.90766 126.971L4.90482 126.978L4.90193 126.985C2.98428 131.588 2.00206 136.888 2.00206 142.922L2.00206 142.931L2.00197 142.941C1.94814 148.417 3.00258 153.846 5.10006 158.894C7.088 163.666 10.0348 167.968 13.7526 171.527C17.6072 175.15 22.1355 177.962 27.0737 179.8L27.0837 179.804L27.0937 179.808C32.2584 181.794 37.9995 182.801 44.3408 182.801L47.5234 182.801L47.5305 182.801C52.8229 182.839 58.0705 181.815 62.9692 179.788L62.9711 179.788C67.6728 177.848 71.9236 174.939 75.4515 171.244C79.0944 167.394 81.9589 162.861 83.8831 157.899L83.8862 157.891L83.8894 157.883C85.9511 152.701 86.9988 146.895 86.9988 140.436ZM76.9018 172.622C73.1812 176.519 68.6962 179.589 63.7338 181.636C58.5886 183.765 53.0762 184.841 47.5163 184.801L44.3408 184.801C37.7855 184.801 31.7972 183.759 26.376 181.675C21.1845 179.742 16.4256 176.786 12.3763 172.978C8.45468 169.225 5.34797 164.691 3.25312 159.661C1.0519 154.363 -0.0544112 148.667 0.00206303 142.922C0.00206275 136.671 1.01994 131.103 3.05571 126.216C4.98392 121.487 7.92279 117.247 11.6622 113.798C15.5342 110.308 20.0871 107.675 25.0277 106.069C30.5968 104.242 36.4232 103.342 42.2785 103.405L51.6368 103.405L51.6368 162.228C52.3093 162.135 52.9765 162.013 53.6368 161.864C55.7176 161.391 57.7294 160.638 59.6174 159.623C64.3966 157.059 68.0592 152.79 69.8915 147.647C70.8645 144.897 71.348 141.994 71.3196 139.074C71.3201 136.882 71.1076 134.695 70.6853 132.545C70.2723 130.418 69.6475 128.339 68.8204 126.339C68.0134 124.389 66.9889 122.539 65.7667 120.824C64.8508 119.616 63.8225 118.502 62.6968 117.496C62.1986 117.051 61.6814 116.627 61.1464 116.225L72.3151 104.347C74.7976 106.178 77.0775 108.275 79.1154 110.6C81.1044 112.99 82.7827 115.628 84.1096 118.448C85.6354 121.664 86.8195 125.034 87.6421 128.502C88.5691 132.41 89.0246 136.417 88.9988 140.436C88.9988 147.113 87.9151 153.175 85.7477 158.622C83.7297 163.826 80.7248 168.581 76.9018 172.622ZM22.9359 155.457C21.3128 153.912 20.0254 152.043 19.1556 149.968C18.2657 147.784 17.8214 145.44 17.8493 143.079C17.8042 140.52 18.2506 137.978 19.164 135.591C19.9685 133.533 21.1838 131.664 22.7343 130.101C24.2652 128.593 26.0885 127.42 28.0897 126.657C29.5696 126.087 31.1069 125.69 32.6716 125.473C33.3342 125.382 34.0016 125.322 34.6716 125.295L34.6716 161.227C33.8656 161.074 33.2268 160.949 32.6716 160.822C31.2971 160.508 30.435 160.185 28.8164 159.424C26.6559 158.433 24.6697 157.093 22.9359 155.457ZM27.9734 161.238C30.4365 162.396 31.392 162.642 34.2997 163.192L36.6716 163.641L36.6716 124.697L34.6475 124.697L34.5911 123.297C32.1209 123.396 29.6834 123.9 27.3741 124.789C25.1144 125.651 23.0569 126.975 21.3303 128.677L21.3223 128.685L21.3144 128.693C19.5706 130.451 18.205 132.551 17.3013 134.863L17.2987 134.869L17.2961 134.876C16.2946 137.493 15.8034 140.28 15.8491 143.084C15.8221 145.703 16.3164 148.3 17.3034 150.723L17.3072 150.732L17.3112 150.741C18.2874 153.07 19.7328 155.169 21.5567 156.906L21.5633 156.912C23.4528 158.695 25.6177 160.156 27.9734 161.238Z" fill="white"/>
</svg>
